<svg width="1365" height="547" viewBox="0 0 1365 547" fill="none" xmlns="http://www.w3.org/2000/svg">
<rect width="1365" height="547" fill="white"/>
<path d="M686.959 420.064C774.852 421.044 846.898 350.587 847.878 262.694C848.858 174.8 778.401 102.754 690.507 101.774C602.614 100.794 530.568 171.252 529.588 259.145C528.608 347.038 599.065 419.084 686.959 420.064Z" fill="#EEAB3A"/>
<path d="M686.197 142.155C686.197 139.33 693.609 134.911 697.662 134.911C705.658 134.911 703.162 138.533 708.191 138.533C713.922 138.533 715.232 122.405 723.953 122.405C733.484 122.405 731.988 138.18 737.838 138.18C740.357 138.18 741.619 136.647 745.2 136.647C747.277 136.647 749.551 139.34 749.551 142.167L686.197 142.155Z" fill="#66CCE9"/>
<path d="M848.512 218.615C852.951 220.635 853.456 228.114 852.65 229.787C851.361 232.459 846.672 236.324 845.41 238.991C844.869 240.136 840.297 252.073 836.032 250.681C832.241 249.436 830.167 243.949 832.309 240.131C835.466 234.485 836.738 226.956 837.857 224.944C839.334 222.296 844.196 216.651 848.512 218.615Z" fill="#50B89D"/>
<path d="M834.445 262.084C834.445 259.351 836.099 237.477 843.966 228.541" stroke="#FBDC8E" stroke-miterlimit="10" stroke-linecap="round"/>
<path d="M841.165 232.685L839.461 226.168" stroke="#FBDC8E" stroke-miterlimit="10" stroke-linecap="round"/>
<path d="M554.938 253.367C566.894 249.167 577.082 265.588 579.826 269.952C591.827 289.122 581.698 305.84 576.38 307.758C567.108 311.105 557.044 296.047 554.196 291.279C549.335 283.201 550.846 271.892 550.307 268.445C549.768 264.998 551.75 254.487 554.938 253.367Z" fill="#8E554A"/>
<path d="M585.85 233.011C593.389 231.932 597.757 238.17 599.107 241.734C601.292 247.55 606.001 250.674 606.001 258.105C606.001 275.445 595.446 289.339 590.706 289.339C580.26 289.339 576.382 278.353 576.382 273.722C576.382 265.86 578.461 256.379 578.214 254.013C577.692 249.152 574.78 234.591 585.85 233.011Z" fill="#B27363"/>
<path d="M561.268 266.437C563.895 269.87 577.382 301.52 580.124 336.864" stroke="#78E5E1" stroke-width="2" stroke-linecap="round" stroke-linejoin="round"/>
<path d="M569.959 265.279C569.674 266.358 567.307 272.838 565.398 275.039" stroke="#78E5E1" stroke-width="2" stroke-linecap="round" stroke-linejoin="round"/>
<path d="M557.771 285.569C559.585 286.774 564.801 287.947 570.104 287.978" stroke="#78E5E1" stroke-width="2" stroke-linecap="round" stroke-linejoin="round"/>
<path d="M576.733 293.144C576.243 293.758 574.826 295.548 572.67 296.416" stroke="#78E5E1" stroke-width="2" stroke-linecap="round" stroke-linejoin="round"/>
<path d="M589.051 254.198C592.155 275.038 584.755 327.97 584.49 336.864" stroke="#78E5E1" stroke-width="2" stroke-linecap="round" stroke-linejoin="round"/>
<path d="M596.562 255.955C595.745 257.21 592.408 260.189 589.874 261.114" stroke="#78E5E1" stroke-width="2" stroke-linecap="round" stroke-linejoin="round"/>
<path d="M581.976 271.574C583.606 272.325 586.671 273.644 589.623 273.644" stroke="#78E5E1" stroke-width="2" stroke-linecap="round" stroke-linejoin="round"/>
<path d="M691.945 320.099H739.561" stroke="#64CBE8" stroke-width="4" stroke-linecap="round" stroke-linejoin="round"/>
<path d="M691.945 323.869L738.603 336.98" stroke="#64CBE8" stroke-width="4" stroke-linecap="round" stroke-linejoin="round"/>
<path d="M731.147 262.949H713.81C712.09 262.949 710.696 264.343 710.696 266.063C710.696 267.782 712.09 269.176 713.81 269.176H731.147C732.867 269.176 734.261 267.782 734.261 266.063C734.261 264.343 732.867 262.949 731.147 262.949Z" fill="#64CBE8"/>
<path d="M727.663 284.899L807.434 285.139" stroke="#64CBE8" stroke-width="4" stroke-linecap="round" stroke-linejoin="round"/>
<path d="M826.029 323.869L799.328 268.265" stroke="#64CBE8" stroke-width="4" stroke-linecap="round" stroke-linejoin="round"/>
<path d="M739.993 338.665C745.728 338.665 750.377 334.016 750.377 328.281C750.377 322.546 745.728 317.897 739.993 317.897C734.258 317.897 729.609 322.546 729.609 328.281C729.609 334.016 734.258 338.665 739.993 338.665Z" fill="#64CBE8"/>
<path d="M691.946 362.84C713.468 362.84 730.916 345.392 730.916 323.869C730.916 302.347 713.468 284.899 691.946 284.899C670.423 284.899 652.976 302.347 652.976 323.869C652.976 345.392 670.423 362.84 691.946 362.84Z" stroke="#3E1815" stroke-width="4" stroke-miterlimit="10"/>
<path d="M726.234 332.538C725.956 333.496 723.599 339.367 724.55 340.264C725.5 341.16 737.684 345.146 738.457 344.752C739.229 344.358 739.863 343.284 739.461 342.798C739.059 342.311 734.594 339.955 734.053 339.313C733.512 338.672 733.35 336.045 734.053 334.863" fill="#1F161E"/>
<path d="M739.028 291.257C738.417 292.03 734.145 296.712 734.717 297.886C735.288 299.061 745.293 307.111 746.112 306.995C746.931 306.879 747.951 306.122 747.743 305.527C747.534 304.932 744.196 301.139 743.941 300.359C743.686 299.578 744.444 297.052 745.525 296.202" fill="#1F161E"/>
<path d="M826.031 204.518C826.031 195.247 813.909 186.926 803.247 186.926C791.936 186.926 784.704 192.906 772.412 192.906C761.967 192.906 749.752 181.896 736.424 181.896C719.311 181.896 713.787 198.623 713.787 205.028C713.787 221.152 728.629 224.165 732.106 224.165C735.582 224.165 783.754 220.248 785.415 220.248C786.319 209.432 801.215 210.714 802.126 207.438C803.254 208.767 811.104 214.917 813.298 214.917C823.45 214.917 826.031 207.871 826.031 204.518Z" fill="black"/>
<path d="M809.723 262.001L804.411 264.297L805.319 266.396L810.63 264.1L809.723 262.001Z" fill="#969696"/>
<path d="M792.863 238.04C792.77 238.62 792.145 247.396 792.392 248.617L792.631 249.838C792.631 249.838 799.585 261.875 800.133 262.763C800.682 263.652 797.483 265.081 797.483 265.081C797.483 265.081 785.292 252.271 784.434 251.174C783.576 250.077 779.891 238.983 779.953 237.708C780.015 236.433 792.863 238.04 792.863 238.04Z" fill="#FFC088"/>
<path d="M755.685 237.183C756.566 237.956 780.81 261.706 780.609 263.807C780.408 265.908 747.465 294.981 743.664 295.862C739.862 296.743 743.324 284.273 744.745 283.23C750.556 278.716 756.076 273.839 761.271 268.628C758.876 267.407 733.682 254.165 729.942 252.604C726.203 251.044 755.685 237.183 755.685 237.183Z" fill="#1F161E"/>
<path d="M748.724 241.687C740.542 236.604 734.886 226.282 733.519 218.78C726.565 224.682 722.022 232.362 722.022 241.68C722.022 258.306 729.099 282.558 731.525 289.318C730.923 292.687 725.391 332.978 725.391 332.978L734.291 335.149C734.291 335.149 748.484 286.908 748.724 284.381C750.655 273.967 748.554 243.063 748.724 241.687Z" fill="#AB8DE5"/>
<path d="M795.265 264.904C795.265 264.904 795.466 264.047 794.346 263.753C793.225 263.459 778.26 253.531 775.803 248.247C777.016 245.774 782.185 236.581 784.997 234C787.809 231.42 774.428 217.513 774.428 217.513C773.74 218.888 761.44 243.936 763.743 252.728C765.288 258.013 786.318 267.601 791.665 270.189C797.011 272.777 795.265 264.904 795.265 264.904Z" fill="#FFC088"/>
<path d="M732.383 219.884C732.777 219.521 733.155 219.158 733.604 218.803C733.171 219.166 732.769 219.521 732.383 219.884Z" fill="#FBDC8E"/>
<path d="M775.495 204.518C761.395 204.518 744.475 209.44 733.52 218.78C734.887 226.282 740.473 236.612 748.686 241.688C748.686 241.688 759.239 237.995 766.703 235.469C766.942 234.781 767.128 233.923 767.259 233.576C770.643 235.414 779.829 240.529 780.308 240.73C780.625 240.135 781.143 239.301 781.614 238.574V238.621C782.997 238.806 787.501 239.903 792.655 239.169C793.025 237.33 795.505 217.822 795.505 216.076C795.505 214.33 794.177 204.518 775.495 204.518Z" fill="#FBDC8E"/>
<path d="M800.805 208.551L788.374 211.023C786.713 211.34 788.374 220.294 790.143 219.947L802.582 217.474L800.805 208.551Z" fill="#FFC088"/>
<path d="M767.259 233.575C767.931 231.945 771.122 222.828 773.076 220.542" stroke="#1F161E" stroke-width="0.55" stroke-miterlimit="10" stroke-linecap="round"/>
<path d="M780.308 240.745C781.157 239.308 785.422 232.247 785.422 232.247" stroke="#1F161E" stroke-width="0.55" stroke-miterlimit="10" stroke-linecap="round"/>
<path d="M806.126 267.711C806.929 265.887 805.724 263.592 803.436 262.585C801.147 261.577 798.641 262.239 797.838 264.063C797.036 265.887 798.24 268.182 800.528 269.189C802.817 270.197 805.323 269.535 806.126 267.711Z" fill="#FFC088"/>
<path d="M801.001 265.505L797.74 266.777C797.152 267.007 796.861 267.67 797.09 268.258C797.32 268.846 797.983 269.137 798.571 268.908L801.832 267.636C802.42 267.406 802.711 266.743 802.481 266.155C802.252 265.567 801.589 265.276 801.001 265.505Z" fill="#969696"/>
<path d="M800.331 268.926C800.723 266.417 798.451 263.978 795.256 263.478C792.061 262.978 789.152 264.605 788.759 267.114C788.366 269.622 790.638 272.061 793.834 272.561C797.029 273.062 799.938 271.434 800.331 268.926Z" fill="#FFC088"/>
<path d="M784.802 271.83L793.44 268.46C793.722 268.35 794.037 268.357 794.315 268.478C794.592 268.6 794.81 268.827 794.92 269.11V269.11C795.031 269.393 795.024 269.707 794.902 269.985C794.78 270.263 794.553 270.481 794.271 270.591L785.633 273.96L784.791 271.801L784.802 271.83Z" fill="#969696"/>
<path d="M804.931 210.374C806.313 210.374 807.434 209.253 807.434 207.87C807.434 206.488 806.313 205.367 804.931 205.367C803.548 205.367 802.428 206.488 802.428 207.87C802.428 209.253 803.548 210.374 804.931 210.374Z" fill="#FFC088"/>
<path d="M807.102 206.666C804.622 207.206 800.064 207.909 796.85 207.376C796.576 208.837 796.599 210.339 796.919 211.791C797.238 213.243 797.848 214.615 798.71 215.826C799.573 217.037 800.671 218.061 801.939 218.837C803.206 219.614 804.618 220.126 806.089 220.344C807.559 220.562 809.059 220.481 810.497 220.106C811.936 219.731 813.284 219.069 814.46 218.16C815.637 217.252 816.618 216.115 817.345 214.818C818.072 213.522 818.53 212.091 818.691 210.614C815.609 209.988 809.752 208.296 807.102 206.666Z" fill="#FFC088"/>
<path d="M815.539 213.472C815.431 214.106 815.091 217.497 812.564 216.362" stroke="#1F161E" stroke-width="0.55" stroke-miterlimit="10" stroke-linecap="round"/>
<path d="M808.121 216.593C807.955 216.23 807.915 215.822 808.009 215.433C808.103 215.045 808.325 214.7 808.639 214.453" stroke="#1F161E" stroke-width="0.55" stroke-miterlimit="10" stroke-linecap="round"/>
<path d="M691.946 329.262C694.924 329.262 697.338 326.847 697.338 323.869C697.338 320.89 694.924 318.476 691.946 318.476C688.967 318.476 686.553 320.89 686.553 323.869C686.553 326.847 688.967 329.262 691.946 329.262Z" fill="#64CBE8"/>
<path d="M826.03 329.262C829.009 329.262 831.423 326.847 831.423 323.869C831.423 320.89 829.009 318.476 826.03 318.476C823.052 318.476 820.638 320.89 820.638 323.869C820.638 326.847 823.052 329.262 826.03 329.262Z" fill="#64CBE8"/>
<path d="M739.993 328.281L807.434 285.139" stroke="#64CBE8" stroke-width="4" stroke-linecap="round" stroke-linejoin="round"/>
<path d="M691.945 323.869L727.663 284.899" stroke="#64CBE8" stroke-width="4" stroke-linecap="round" stroke-linejoin="round"/>
<path d="M727.663 284.899L723.723 269.045" stroke="#64CBE8" stroke-width="4" stroke-linecap="round" stroke-linejoin="round"/>
<path d="M539.402 338.734H593.485" stroke="black" stroke-miterlimit="10" stroke-linecap="round"/>
<path d="M777.363 348.778H831.445" stroke="black" stroke-miterlimit="10" stroke-linecap="round"/>
<path d="M703.967 385.863H758.049" stroke="black" stroke-miterlimit="10" stroke-linecap="round"/>
<path d="M614.346 362.685H668.428" stroke="black" stroke-miterlimit="10" stroke-linecap="round"/>
<path d="M527.812 348.778H550.991" stroke="black" stroke-miterlimit="10" stroke-linecap="round"/>
<circle opacity="0.7" cx="660.702" cy="184.214" r="27.0411" fill="#E57E4B"/>
<path d="M500 171.777C500 165.464 515.665 164.127 521.857 164.127C534.413 164.127 535.244 156.939 545.671 156.939C554.837 156.939 559.5 164.36 568.034 164.36C586.349 164.36 590.428 143.266 608.245 143.266C626.373 143.266 625.447 165.287 642.316 165.287C650.893 165.287 702.422 166.906 702.422 171.782L500 171.777Z" fill="#95D9EE"/>
<path d="M826.031 362.84C847.553 362.84 865.001 345.392 865.001 323.869C865.001 302.347 847.553 284.899 826.031 284.899C804.508 284.899 787.061 302.347 787.061 323.869C787.061 345.392 804.508 362.84 826.031 362.84Z" stroke="#3E1815" stroke-width="4" stroke-miterlimit="10"/>
</svg>
