<svg width="115" height="48" viewBox="0 0 115 48" fill="none" xmlns="http://www.w3.org/2000/svg">
<rect x="1.5" y="1.5" width="111.383" height="45" stroke="#EEAB3A" stroke-width="3"/>
<path d="M15.9946 29.9779C15.9946 30.1576 16.0103 30.3295 16.0415 30.4935C16.0806 30.6498 16.1509 30.7865 16.2524 30.9037C16.3618 31.0209 16.5063 31.1146 16.686 31.1849C16.8735 31.2552 17.1157 31.2904 17.4126 31.2904C17.8423 31.2904 18.2368 31.1693 18.5962 30.9271C18.9556 30.6771 19.2642 30.3607 19.522 29.9779C19.7798 29.5873 19.979 29.1537 20.1196 28.6771C20.2603 28.1927 20.3306 27.7123 20.3306 27.2357C20.3306 26.5248 20.2329 25.8998 20.0376 25.3607C19.8501 24.8138 19.5845 24.3529 19.2407 23.9779C18.897 23.6029 18.4907 23.3138 18.022 23.1107C17.5532 22.8998 17.0454 22.7787 16.4985 22.7474L16.7329 22.1498C17.0767 22.1654 17.4048 22.1185 17.7173 22.0092C18.0298 21.8998 18.3032 21.7084 18.5376 21.4349C18.7798 21.1615 18.9712 20.7943 19.1118 20.3334C19.2524 19.8646 19.3228 19.2787 19.3228 18.5756C19.3228 18.099 19.2642 17.6693 19.147 17.2865C19.0298 16.9037 18.8735 16.5834 18.6782 16.3256C18.4907 16.0599 18.2681 15.8568 18.0103 15.7162C17.7603 15.5756 17.5024 15.5052 17.2368 15.5052C17.0728 15.5052 16.9126 15.5248 16.7563 15.5638C16.6079 15.6029 16.4751 15.6693 16.3579 15.7631C16.2485 15.8568 16.1587 15.9818 16.0884 16.1381C16.0259 16.2865 15.9946 16.474 15.9946 16.7006V29.9779ZM16.229 14.5443C18.4946 14.5443 20.1587 14.8998 21.2212 15.6107C22.2915 16.3138 22.8267 17.3412 22.8267 18.6927C22.8267 19.0287 22.7876 19.3373 22.7095 19.6185C22.6392 19.8998 22.5454 20.1576 22.4282 20.392C22.311 20.6185 22.1782 20.8217 22.0298 21.0013C21.8813 21.181 21.729 21.3373 21.5728 21.4701C21.2056 21.7904 20.7915 22.0404 20.3306 22.2201V22.3959C21.0571 22.4818 21.7095 22.7006 22.2876 23.0521C22.5298 23.2006 22.7681 23.3881 23.0024 23.6146C23.2368 23.8334 23.4438 24.1029 23.6235 24.4232C23.811 24.7357 23.9595 25.1029 24.0688 25.5248C24.186 25.9388 24.2446 26.4154 24.2446 26.9545C24.2446 27.7748 24.0962 28.5131 23.7993 29.1693C23.5024 29.8256 23.061 30.3842 22.4751 30.8451C21.8892 31.2982 21.1587 31.6459 20.2837 31.8881C19.4087 32.1302 18.3931 32.2513 17.2368 32.2513C16.1665 32.2513 15.2954 32.1849 14.6235 32.0521C13.9517 31.9193 13.4282 31.7279 13.0532 31.4779C12.6782 31.2201 12.4204 30.9115 12.2798 30.5521C12.147 30.1927 12.0806 29.7865 12.0806 29.3334V16.5131C12.0806 16.0834 11.7837 15.8685 11.1899 15.8685C10.7603 15.8685 10.3228 15.9349 9.87744 16.0677C9.43994 16.1927 9.0415 16.3685 8.68213 16.5951C8.33057 16.8138 8.0415 17.0795 7.81494 17.392C7.58838 17.6967 7.4751 18.0287 7.4751 18.3881C7.4751 18.6381 7.50635 18.8373 7.56885 18.9857C7.63916 19.1342 7.71729 19.2474 7.80322 19.3256C7.88916 19.3959 7.9751 19.4427 8.06104 19.4662C8.15479 19.4818 8.22119 19.4896 8.26025 19.4896C8.45557 19.4896 8.61572 19.4584 8.74072 19.3959C8.86572 19.3256 8.979 19.2552 9.08057 19.1849C9.18213 19.1068 9.27588 19.0365 9.36182 18.974C9.45557 18.9037 9.56104 18.8685 9.67822 18.8685C9.77197 18.8685 9.86963 18.892 9.97119 18.9388C10.0806 18.9779 10.1782 19.0443 10.2642 19.1381C10.3579 19.2318 10.436 19.3568 10.4985 19.5131C10.561 19.6615 10.5923 19.8451 10.5923 20.0638C10.5923 20.3763 10.5298 20.6459 10.4048 20.8724C10.2876 21.099 10.1313 21.2904 9.93604 21.4467C9.74854 21.5951 9.52979 21.7084 9.27979 21.7865C9.0376 21.8568 8.79541 21.892 8.55322 21.892C8.17822 21.892 7.83838 21.8295 7.53369 21.7045C7.23682 21.5717 6.98291 21.392 6.77197 21.1654C6.56104 20.9388 6.40088 20.6732 6.2915 20.3685C6.18213 20.0638 6.12744 19.7396 6.12744 19.3959C6.12744 18.7474 6.24854 18.1771 6.49072 17.6849C6.73291 17.1849 7.07275 16.7552 7.51025 16.3959C7.95557 16.0365 8.48682 15.7396 9.104 15.5052C9.72119 15.2631 10.4048 15.0717 11.1548 14.931C11.9048 14.7904 12.7056 14.6927 13.5571 14.6381C14.4165 14.5756 15.3071 14.5443 16.229 14.5443ZM30.1743 31.0092C30.1743 31.1107 30.1548 31.2357 30.1157 31.3842C30.0845 31.5248 30.0024 31.6615 29.8696 31.7943C29.7446 31.9193 29.561 32.0248 29.3188 32.1107C29.0767 32.2045 28.7485 32.2513 28.3345 32.2513C27.9204 32.2513 27.5962 32.2006 27.3618 32.099C27.1274 32.0052 26.9517 31.892 26.8345 31.7592C26.7173 31.6263 26.6431 31.4896 26.6118 31.349C26.5884 31.2084 26.5767 31.0951 26.5767 31.0092V21.9623C26.5767 21.7357 26.522 21.5404 26.4126 21.3763C26.311 21.2045 26.1353 21.1185 25.8853 21.1185C25.7524 21.1185 25.6392 21.142 25.5454 21.1888C25.4517 21.2357 25.3501 21.3021 25.2407 21.3881L24.9946 21.0951C25.1743 20.9467 25.3735 20.8021 25.5923 20.6615C25.8188 20.5131 26.061 20.3842 26.3188 20.2748C26.5767 20.1654 26.854 20.0756 27.1509 20.0052C27.4478 19.9349 27.7603 19.8998 28.0884 19.8998C28.5962 19.8998 28.9907 19.9701 29.272 20.1107C29.5532 20.2435 29.7603 20.4115 29.8931 20.6146C30.0259 20.8099 30.104 21.0209 30.1274 21.2474C30.1587 21.474 30.1743 21.6732 30.1743 21.8451V31.0092ZM26.2134 17.2279C26.2134 17.0092 26.2603 16.8021 26.354 16.6068C26.4556 16.4037 26.5923 16.2279 26.7642 16.0795C26.9438 15.931 27.147 15.8138 27.3735 15.7279C27.6079 15.642 27.8618 15.599 28.1353 15.599C28.4009 15.599 28.647 15.642 28.8735 15.7279C29.1079 15.8138 29.311 15.931 29.4829 16.0795C29.6548 16.2279 29.7876 16.4037 29.8813 16.6068C29.9829 16.8021 30.0337 17.0092 30.0337 17.2279C30.0337 17.4545 29.9829 17.6654 29.8813 17.8607C29.7876 18.056 29.6548 18.2279 29.4829 18.3763C29.311 18.517 29.1079 18.6302 28.8735 18.7162C28.647 18.8021 28.4009 18.8451 28.1353 18.8451C27.8618 18.8451 27.6079 18.8021 27.3735 18.7162C27.147 18.6302 26.9438 18.517 26.7642 18.3763C26.5923 18.2279 26.4556 18.056 26.354 17.8607C26.2603 17.6654 26.2134 17.4545 26.2134 17.2279ZM36.7603 23.0873C37.0337 22.7201 37.3267 22.349 37.6392 21.974C37.9517 21.5912 38.2876 21.2474 38.647 20.9427C39.0063 20.6381 39.397 20.3881 39.8188 20.1927C40.2407 19.9974 40.7017 19.8998 41.2017 19.8998C41.647 19.8998 42.0181 19.9896 42.3149 20.1693C42.6118 20.3412 42.8501 20.5521 43.0298 20.8021C43.2173 21.0443 43.3462 21.2982 43.4165 21.5638C43.4946 21.8295 43.5337 22.056 43.5337 22.2435C43.5337 22.5873 43.4868 22.9467 43.3931 23.3217C43.3071 23.6888 43.1548 24.056 42.936 24.4232C42.7251 24.7826 42.4399 25.1342 42.0806 25.4779C41.7212 25.8138 41.2681 26.1224 40.7212 26.4037C41.4556 27.9584 42.1704 29.2982 42.8657 30.4232C43.561 31.5404 44.229 32.4584 44.8696 33.1771C45.5181 33.9037 46.1392 34.4388 46.7329 34.7826C47.3267 35.1263 47.8931 35.2982 48.4321 35.2982C48.5259 35.2982 48.6196 35.2865 48.7134 35.2631C48.8071 35.2396 48.8931 35.2123 48.9712 35.181C49.0571 35.1498 49.147 35.1107 49.2407 35.0638L49.4634 35.474C49.2524 35.5912 49.0376 35.7006 48.8188 35.8021C48.6001 35.9115 48.3501 36.0052 48.0688 36.0834C47.7876 36.1615 47.4634 36.224 47.0962 36.2709C46.729 36.3177 46.2915 36.3412 45.7837 36.3412C45.3228 36.3412 44.8657 36.2865 44.4126 36.1771C43.9673 36.0677 43.5181 35.8724 43.0649 35.5912C42.6118 35.3099 42.1509 34.9349 41.6821 34.4662C41.2212 33.9974 40.7446 33.4037 40.2524 32.6849C39.7681 31.9662 39.2681 31.1107 38.7524 30.1185C38.2368 29.1263 37.7017 27.9662 37.147 26.6381C37.897 26.0834 38.4868 25.5717 38.9165 25.1029C39.3462 24.6263 39.6704 24.1967 39.8892 23.8138C40.1079 23.431 40.2446 23.0912 40.2993 22.7943C40.354 22.4974 40.3813 22.2435 40.3813 22.0326C40.3813 22.0013 40.3774 21.9506 40.3696 21.8802C40.3618 21.8021 40.3345 21.7279 40.2876 21.6576C40.2485 21.5873 40.186 21.5248 40.1001 21.4701C40.022 21.4154 39.9087 21.3881 39.7603 21.3881C39.4712 21.3881 39.1782 21.5131 38.8813 21.7631C38.5845 22.0052 38.2993 22.3099 38.0259 22.6771C37.7603 23.0365 37.5181 23.4271 37.2993 23.849C37.0806 24.2631 36.9009 24.642 36.7603 24.9857V31.0326C36.7603 31.1342 36.7407 31.2552 36.7017 31.3959C36.6704 31.5365 36.5884 31.6693 36.4556 31.7943C36.3306 31.9193 36.1431 32.0248 35.8931 32.1107C35.6509 32.2045 35.3228 32.2513 34.9087 32.2513C34.4946 32.2513 34.1704 32.2006 33.936 32.099C33.7017 32.0052 33.5259 31.892 33.4087 31.7592C33.2993 31.6263 33.229 31.4896 33.1978 31.349C33.1743 31.2084 33.1626 31.0951 33.1626 31.0092V15.892C33.1626 15.6654 33.1079 15.4701 32.9985 15.306C32.897 15.1342 32.7212 15.0482 32.4712 15.0482C32.3384 15.0482 32.2212 15.0717 32.1196 15.1185C32.0259 15.1576 31.9243 15.2201 31.8149 15.306L31.5806 15.0248C31.7603 14.8763 31.9595 14.7318 32.1782 14.5912C32.397 14.4427 32.6353 14.3138 32.8931 14.2045C33.1587 14.0951 33.4399 14.0052 33.7368 13.9349C34.0337 13.8646 34.3462 13.8295 34.6743 13.8295C35.1821 13.8295 35.5767 13.8998 35.8579 14.0404C36.1392 14.1732 36.3462 14.3412 36.479 14.5443C36.6118 14.7396 36.6899 14.9506 36.7134 15.1771C36.7446 15.3959 36.7603 15.5912 36.7603 15.7631V23.0873ZM48.6782 26.6849C48.6782 26.9349 48.7134 27.2084 48.7837 27.5052C48.8618 27.7943 48.9712 28.0873 49.1118 28.3842C49.2524 28.681 49.4243 28.9662 49.6274 29.2396C49.8384 29.5052 50.0767 29.7435 50.3423 29.9545C50.6157 30.1654 50.9165 30.3334 51.2446 30.4584C51.5728 30.5834 51.9321 30.6459 52.3228 30.6459C52.5962 30.6459 52.8501 30.6146 53.0845 30.5521C53.3188 30.4896 53.5376 30.4037 53.7407 30.2943C53.9438 30.1849 54.1392 30.0599 54.3267 29.9193C54.5142 29.7709 54.7017 29.6146 54.8892 29.4506L55.1821 29.7318C55.0024 29.974 54.772 30.2396 54.4907 30.5287C54.2095 30.8177 53.8696 31.0912 53.4712 31.349C53.0728 31.599 52.6079 31.8099 52.0767 31.9818C51.5454 32.1459 50.9399 32.2279 50.2603 32.2279C49.5806 32.2279 48.9165 32.1068 48.2681 31.8646C47.6274 31.6146 47.0571 31.2435 46.5571 30.7513C46.0571 30.2592 45.6548 29.6459 45.3501 28.9115C45.0532 28.1771 44.9048 27.3177 44.9048 26.3334C44.9048 25.6224 44.9946 24.9701 45.1743 24.3763C45.354 23.7826 45.5962 23.2474 45.9009 22.7709C46.2134 22.2943 46.5728 21.8763 46.979 21.517C47.3931 21.1576 47.8267 20.8607 48.2798 20.6263C48.7329 20.3842 49.1938 20.2045 49.6626 20.0873C50.1392 19.9623 50.5962 19.8998 51.0337 19.8998C51.6118 19.8998 52.1157 19.9623 52.5454 20.0873C52.9751 20.2123 53.3306 20.3802 53.6118 20.5912C53.9009 20.8021 54.1157 21.0482 54.2563 21.3295C54.397 21.6029 54.4673 21.892 54.4673 22.1967C54.4673 22.5638 54.3618 22.8959 54.1509 23.1927C53.9399 23.4818 53.6587 23.7357 53.3071 23.9545L48.6782 26.6849ZM51.0337 24.306C51.1353 24.2435 51.2173 24.1849 51.2798 24.1302C51.3501 24.0677 51.4048 23.9974 51.4438 23.9193C51.4829 23.8334 51.5103 23.7318 51.5259 23.6146C51.5493 23.4896 51.561 23.3373 51.561 23.1576C51.561 22.9623 51.5376 22.7474 51.4907 22.5131C51.4517 22.2709 51.3813 22.0443 51.2798 21.8334C51.1782 21.6224 51.0493 21.4467 50.8931 21.306C50.7368 21.1654 50.5493 21.0951 50.3306 21.0951C50.0493 21.0951 49.8071 21.181 49.604 21.3529C49.4087 21.517 49.2446 21.7318 49.1118 21.9974C48.9868 22.2631 48.8853 22.5677 48.8071 22.9115C48.7368 23.2474 48.6821 23.5873 48.6431 23.931C48.604 24.2748 48.5806 24.6068 48.5728 24.9271C48.5649 25.2396 48.561 25.5052 48.561 25.724L51.0337 24.306ZM64.2993 15.5521C64.0884 15.5521 63.8423 15.5951 63.561 15.681C63.2798 15.767 62.9907 15.931 62.6938 16.1732C62.4048 16.4076 62.1196 16.7396 61.8384 17.1693C61.5571 17.599 61.3032 18.1576 61.0767 18.8451C60.8579 19.5248 60.6782 20.3529 60.5376 21.3295C60.4048 22.306 60.3384 23.4584 60.3384 24.7865C60.3384 26.0521 60.4048 27.1498 60.5376 28.0795C60.6782 29.0092 60.8618 29.8021 61.0884 30.4584C61.3228 31.1068 61.5884 31.6381 61.8853 32.0521C62.1821 32.4662 62.4946 32.7865 62.8228 33.0131C63.1509 33.2474 63.479 33.4076 63.8071 33.4935C64.1353 33.5795 64.4438 33.6224 64.7329 33.6224C65.0376 33.6224 65.3462 33.5834 65.6587 33.5052C65.9712 33.4271 66.2759 33.3138 66.5728 33.1654C66.8774 33.017 67.1665 32.8373 67.4399 32.6263C67.7212 32.4154 67.979 32.1732 68.2134 31.8998L68.7407 32.4271C68.5063 32.7162 68.2251 33.0092 67.897 33.306C67.5688 33.6107 67.186 33.8842 66.7485 34.1263C66.3188 34.3763 65.8345 34.5795 65.2954 34.7357C64.7563 34.892 64.1587 34.9701 63.5024 34.9701C62.479 34.9701 61.5259 34.7748 60.6431 34.3842C59.7681 33.9935 59.0024 33.3842 58.3462 32.556C57.6978 31.7357 57.186 30.681 56.811 29.392C56.4438 28.1029 56.2603 26.5599 56.2603 24.7631C56.2603 23.0756 56.4556 21.5951 56.8462 20.3217C57.2368 19.0482 57.7681 17.9857 58.4399 17.1342C59.1118 16.2748 59.9009 15.6302 60.8071 15.2006C61.7134 14.7631 62.6782 14.5443 63.7017 14.5443C64.3813 14.5443 64.9985 14.6107 65.5532 14.7435C66.1157 14.8685 66.6001 15.056 67.0063 15.306C67.4126 15.5482 67.7251 15.8529 67.9438 16.2201C68.1704 16.5795 68.2837 16.9896 68.2837 17.4506C68.2837 17.6615 68.2485 17.8842 68.1782 18.1185C68.1079 18.3451 67.9985 18.556 67.8501 18.7513C67.7095 18.9388 67.5337 19.0951 67.3228 19.2201C67.1118 19.3373 66.8657 19.3959 66.5845 19.3959C66.3345 19.3959 66.1392 19.3412 65.9985 19.2318C65.8657 19.1224 65.7642 18.9779 65.6938 18.7982C65.6313 18.6185 65.5884 18.4154 65.5649 18.1888C65.5493 17.9545 65.5376 17.7162 65.5298 17.474C65.522 17.2318 65.5024 16.9974 65.4712 16.7709C65.4478 16.5365 65.3931 16.3295 65.3071 16.1498C65.229 15.9701 65.1118 15.8256 64.9556 15.7162C64.7993 15.6068 64.5806 15.5521 64.2993 15.5521ZM73.5806 22.3724C73.8774 21.9193 74.1938 21.5092 74.5298 21.142C74.6704 20.9857 74.8228 20.8334 74.9868 20.6849C75.1509 20.5365 75.3188 20.4037 75.4907 20.2865C75.6704 20.1693 75.854 20.0756 76.0415 20.0052C76.229 19.9349 76.4165 19.8998 76.604 19.8998C77.0024 19.8998 77.3149 20.0209 77.5415 20.2631C77.7681 20.4974 77.8813 20.8295 77.8813 21.2592C77.8813 21.5248 77.8579 21.7826 77.811 22.0326C77.772 22.2748 77.6899 22.5717 77.5649 22.9232H77.2368C77.1899 22.681 77.0806 22.4818 76.9087 22.3256C76.7368 22.1615 76.4868 22.0795 76.1587 22.0795C75.9165 22.0795 75.6782 22.1263 75.4438 22.2201C75.2095 22.306 74.979 22.4154 74.7524 22.5482C74.5337 22.681 74.3228 22.8256 74.1196 22.9818C73.9243 23.1381 73.7446 23.2865 73.5806 23.4271V31.0326C73.5806 31.1342 73.5649 31.2552 73.5337 31.3959C73.5024 31.5365 73.4243 31.6693 73.2993 31.7943C73.1821 31.9193 73.0024 32.0248 72.7603 32.1107C72.5259 32.2045 72.2017 32.2513 71.7876 32.2513C71.3735 32.2513 71.0454 32.2006 70.8032 32.099C70.5688 32.0052 70.3892 31.892 70.2642 31.7592C70.1392 31.6263 70.061 31.4896 70.0298 31.349C69.9985 31.2084 69.9829 31.0951 69.9829 31.0092V21.9623C69.9829 21.7357 69.9282 21.5404 69.8188 21.3763C69.7173 21.2045 69.5415 21.1185 69.2915 21.1185C69.1587 21.1185 69.0454 21.142 68.9517 21.1888C68.8579 21.2357 68.7563 21.3021 68.647 21.3881L68.4009 21.0951C68.5806 20.9467 68.7798 20.8021 68.9985 20.6615C69.2251 20.5131 69.4673 20.3842 69.7251 20.2748C69.9829 20.1654 70.2603 20.0756 70.5571 20.0052C70.854 19.9349 71.1665 19.8998 71.4946 19.8998C71.8306 19.8998 72.1157 19.9467 72.3501 20.0404C72.5923 20.1263 72.7876 20.2435 72.936 20.392C73.0923 20.5326 73.2134 20.6927 73.2993 20.8724C73.3853 21.0521 73.4478 21.2357 73.4868 21.4232C73.5337 21.6029 73.561 21.7787 73.5688 21.9506C73.5767 22.1146 73.5806 22.2552 73.5806 22.3724ZM84.4204 25.9935C84.4204 25.7982 84.3579 25.6498 84.2329 25.5482C84.1079 25.4467 83.9478 25.3959 83.7524 25.3959C83.479 25.3959 83.2173 25.4584 82.9673 25.5834C82.7251 25.7084 82.5103 25.892 82.3228 26.1342C82.1353 26.3763 81.9868 26.6771 81.8774 27.0365C81.7681 27.3881 81.7134 27.7982 81.7134 28.267C81.7134 28.7201 81.7446 29.0951 81.8071 29.392C81.8774 29.6888 81.9673 29.9271 82.0767 30.1068C82.1938 30.2787 82.3267 30.3998 82.4751 30.4701C82.6235 30.5404 82.7798 30.5756 82.9438 30.5756C83.147 30.5756 83.3384 30.5248 83.5181 30.4232C83.6978 30.3138 83.854 30.1771 83.9868 30.0131C84.1196 29.849 84.2251 29.6654 84.3032 29.4623C84.3813 29.2592 84.4204 29.056 84.4204 28.8529V25.9935ZM82.5571 20.8607C82.2915 20.8607 82.0454 20.892 81.8188 20.9545C81.5923 21.017 81.397 21.0951 81.2329 21.1888C81.0688 21.2826 80.9399 21.3881 80.8462 21.5052C80.7524 21.6146 80.7056 21.7201 80.7056 21.8217C80.7056 21.9388 80.7642 22.0248 80.8813 22.0795C81.0063 22.1263 81.1431 22.1849 81.2915 22.2552C81.4399 22.3177 81.5728 22.4115 81.6899 22.5365C81.8149 22.6537 81.8774 22.8373 81.8774 23.0873C81.8774 23.2513 81.8423 23.4037 81.772 23.5443C81.7095 23.6771 81.6196 23.7982 81.5024 23.9076C81.3931 24.0092 81.2603 24.0912 81.104 24.1537C80.9556 24.2084 80.7993 24.2357 80.6353 24.2357C80.1978 24.2357 79.8423 24.0873 79.5688 23.7904C79.3032 23.4935 79.1704 23.099 79.1704 22.6068C79.1704 22.1302 79.2954 21.724 79.5454 21.3881C79.7954 21.0443 80.1196 20.7631 80.5181 20.5443C80.9243 20.3256 81.3813 20.1654 81.8892 20.0638C82.397 19.9545 82.9048 19.8998 83.4126 19.8998C84.022 19.8998 84.604 19.9662 85.1587 20.099C85.7134 20.2318 86.2017 20.4427 86.6235 20.7318C87.0532 21.0209 87.3931 21.3881 87.6431 21.8334C87.9009 22.2787 88.0298 22.8177 88.0298 23.4506V30.0717C88.0298 30.142 88.0337 30.2201 88.0415 30.306C88.0493 30.392 88.0688 30.4701 88.1001 30.5404C88.1313 30.6107 88.1782 30.6693 88.2407 30.7162C88.3032 30.7631 88.3931 30.7865 88.5103 30.7865C88.6509 30.7865 88.7798 30.7357 88.897 30.6342C89.022 30.5248 89.1313 30.4154 89.2251 30.306L89.5181 30.5521C89.4009 30.7162 89.2603 30.8959 89.0962 31.0912C88.9321 31.2865 88.7329 31.4701 88.4985 31.642C88.2642 31.8138 87.9907 31.9584 87.6782 32.0756C87.3657 32.1927 87.0103 32.2513 86.6118 32.2513C86.1196 32.2513 85.6821 32.1068 85.2993 31.8177C84.9165 31.5209 84.6665 31.0677 84.5493 30.4584C84.2993 30.7943 84.0376 31.0756 83.7642 31.3021C83.4985 31.5287 83.2251 31.7123 82.9438 31.8529C82.6626 31.9935 82.3774 32.0951 82.0884 32.1576C81.8071 32.2201 81.522 32.2513 81.2329 32.2513C80.8579 32.2513 80.4946 32.1927 80.1431 32.0756C79.7915 31.9584 79.4751 31.7748 79.1938 31.5248C78.9204 31.267 78.6978 30.9349 78.5259 30.5287C78.3618 30.1224 78.2798 29.6263 78.2798 29.0404C78.2798 28.3295 78.4204 27.7474 78.7017 27.2943C78.9829 26.8412 79.3501 26.4623 79.8032 26.1576C80.2642 25.8451 80.7837 25.5795 81.3618 25.3607C81.9478 25.142 82.5454 24.9115 83.1548 24.6693C83.6079 24.4896 83.936 24.224 84.1392 23.8724C84.3501 23.5131 84.4556 23.1459 84.4556 22.7709C84.4556 22.1927 84.2837 21.7318 83.9399 21.3881C83.604 21.0365 83.1431 20.8607 82.5571 20.8607ZM96.8774 14.6381C96.6587 14.6381 96.4517 14.6849 96.2563 14.7787C96.061 14.8724 95.8892 15.0248 95.7407 15.2357C95.6001 15.4388 95.4868 15.7006 95.4009 16.0209C95.3149 16.3412 95.272 16.7279 95.272 17.181V20.0638H97.8384V20.9076H95.272V30.142C95.272 31.2045 95.1313 32.1849 94.8501 33.0834C94.5767 33.9818 94.1587 34.7552 93.5962 35.4037C93.0337 36.0599 92.3306 36.5717 91.4868 36.9388C90.6431 37.306 89.6587 37.4896 88.5337 37.4896C88.1353 37.4896 87.7524 37.4545 87.3853 37.3842C87.0181 37.3217 86.6938 37.2318 86.4126 37.1146C86.1313 36.9974 85.9087 36.8568 85.7446 36.6927C85.5728 36.5365 85.4868 36.3607 85.4868 36.1654C85.4868 36.0248 85.5063 35.8802 85.5454 35.7318C85.5845 35.5912 85.6431 35.4623 85.7212 35.3451C85.7993 35.2279 85.897 35.1302 86.0142 35.0521C86.1235 34.9818 86.2524 34.9467 86.4009 34.9467C86.4868 34.9467 86.5649 34.9896 86.6353 35.0756C86.6978 35.1615 86.7642 35.267 86.8345 35.392C86.9048 35.517 86.9868 35.6537 87.0806 35.8021C87.1665 35.9584 87.2798 36.099 87.4204 36.224C87.561 36.349 87.7368 36.4545 87.9478 36.5404C88.1509 36.6263 88.4009 36.6693 88.6978 36.6693C89.0962 36.6693 89.4478 36.5873 89.7524 36.4232C90.0571 36.267 90.3188 36.0482 90.5376 35.767C90.7563 35.4857 90.9399 35.1537 91.0884 34.7709C91.2368 34.3881 91.354 33.9779 91.4399 33.5404C91.5259 33.1029 91.5845 32.6459 91.6157 32.1693C91.6548 31.6927 91.6743 31.2162 91.6743 30.7396V20.9076H89.5181V20.0638H91.6743V18.6927C91.6743 18.0052 91.7563 17.4076 91.9204 16.8998C92.0923 16.3842 92.3149 15.9467 92.5884 15.5873C92.8696 15.2279 93.186 14.9349 93.5376 14.7084C93.8892 14.4818 94.2446 14.3021 94.604 14.1693C94.9712 14.0365 95.3267 13.9467 95.6704 13.8998C96.0142 13.8529 96.3149 13.8295 96.5728 13.8295C97.1274 13.8295 97.6196 13.8724 98.0493 13.9584C98.479 14.0365 98.8384 14.1459 99.1274 14.2865C99.4165 14.4193 99.6353 14.5756 99.7837 14.7552C99.9321 14.9349 100.006 15.1185 100.006 15.306C100.006 15.4467 99.9829 15.5912 99.936 15.7396C99.897 15.8802 99.8384 16.0131 99.7603 16.1381C99.6821 16.2552 99.5845 16.3529 99.4673 16.431C99.3579 16.5013 99.2329 16.5365 99.0923 16.5365C99.0063 16.5365 98.9282 16.4896 98.8579 16.3959C98.7876 16.3021 98.7134 16.1849 98.6353 16.0443C98.5571 15.9037 98.4712 15.7513 98.3774 15.5873C98.2837 15.4232 98.1665 15.2709 98.0259 15.1302C97.8931 14.9896 97.7329 14.8724 97.5454 14.7787C97.3579 14.6849 97.1353 14.6381 96.8774 14.6381ZM102.702 20.9076V29.5677C102.702 29.9818 102.78 30.2709 102.936 30.4349C103.092 30.5912 103.307 30.6693 103.581 30.6693C103.792 30.6693 103.979 30.6107 104.143 30.4935C104.307 30.3763 104.448 30.2435 104.565 30.0951C104.706 29.931 104.827 29.7396 104.928 29.5209L105.292 29.6849C105.174 29.9349 105.034 30.2084 104.87 30.5052C104.713 30.8021 104.502 31.0795 104.237 31.3373C103.971 31.5873 103.635 31.7982 103.229 31.9701C102.831 32.142 102.327 32.2279 101.717 32.2279C101.374 32.2279 101.042 32.1771 100.721 32.0756C100.409 31.974 100.127 31.8138 99.8774 31.5951C99.6353 31.3763 99.4399 31.1029 99.2915 30.7748C99.1431 30.4467 99.0688 30.0521 99.0688 29.5912V20.9076H97.7563V20.0638C97.9751 20.0638 98.2798 20.0092 98.6704 19.8998C99.061 19.7826 99.4595 19.5912 99.8657 19.3256C100.28 19.0599 100.663 18.7045 101.014 18.2592C101.366 17.8138 101.616 17.2631 101.764 16.6068H102.702V20.0638H104.612C105.237 20.0638 105.549 19.9584 105.549 19.7474C105.549 19.6693 105.51 19.6185 105.432 19.5951C105.354 19.5638 105.264 19.5287 105.163 19.4896C105.069 19.4427 104.983 19.3802 104.905 19.3021C104.827 19.224 104.788 19.0951 104.788 18.9154C104.788 18.6967 104.854 18.5248 104.987 18.3998C105.127 18.2748 105.307 18.2123 105.526 18.2123C105.667 18.2123 105.788 18.2435 105.889 18.306C105.999 18.3607 106.088 18.4388 106.159 18.5404C106.229 18.6342 106.28 18.7435 106.311 18.8685C106.35 18.9935 106.37 19.1185 106.37 19.2435C106.37 19.7513 106.221 20.1576 105.924 20.4623C105.635 20.7592 105.167 20.9076 104.518 20.9076H102.702Z" fill="#EEAB3A"/>
</svg>
