<svg width="168" height="114" viewBox="0 0 168 114" fill="none" xmlns="http://www.w3.org/2000/svg">
<path d="M136.645 51.6027C131.252 51.5961 125.954 53.0385 121.291 55.7826C120.232 53.5209 119.256 51.2033 118.387 48.8561L117.312 45.9528H127.297C128.981 45.9543 130.622 45.4186 131.988 44.4216C133.353 43.4247 134.374 42.0172 134.905 40.3992L136.518 35.4989L136.52 35.4905L139.291 27.0713C139.431 26.6467 139.469 26.1945 139.402 25.752C139.336 25.3095 139.166 24.8894 138.908 24.5262C138.649 24.1631 138.309 23.8673 137.916 23.6633C137.523 23.4594 137.087 23.353 136.645 23.353H115.727C114.617 23.3542 113.554 23.801 112.77 24.5954C111.985 25.3898 111.544 26.4669 111.543 27.5904V30.3713L109.312 24.3417L118.795 17.138C119.141 16.8749 119.422 16.5336 119.616 16.1414C119.81 15.7491 119.91 15.3166 119.91 14.878V9.22806C119.91 8.47883 119.617 7.76029 119.093 7.2305C118.57 6.70072 117.861 6.40309 117.121 6.40309H102.696C102.038 4.51822 100.743 2.92962 99.0408 1.91806C97.3382 0.906503 95.3375 0.537113 93.3921 0.875181C91.4466 1.21325 89.6819 2.23701 88.4096 3.76552C87.1374 5.29403 86.4396 7.22886 86.4396 9.22806C86.4396 11.2273 87.1374 13.1621 88.4096 14.6906C89.6819 16.2191 91.4466 17.2429 93.3921 17.5809C95.3375 17.919 97.3382 17.5496 99.0408 16.5381C100.743 15.5265 102.038 13.9379 102.696 12.053H114.332V13.4655L104.291 21.093C103.809 21.4595 103.457 21.9745 103.288 22.5609C103.118 23.1472 103.142 23.7733 103.353 24.3452L110.697 44.1737L101.043 63.7268C97.7936 70.2984 92.217 75.3872 85.4262 77.9778C84.5361 76.0103 83.1075 74.3428 81.3098 73.1729C79.5122 72.003 77.421 71.38 75.2843 71.3776C74.9234 71.3776 74.5671 71.3966 74.2153 71.4305L66.7488 50.6373C66.7387 50.609 66.7244 50.5829 66.7139 50.5554H66.7178L62.6945 40.3681L74.3461 35.3104C75.6491 34.7458 76.7196 33.7427 77.3766 32.4708C78.0337 31.1989 78.2369 29.7362 77.9519 28.33C77.6669 26.9239 76.9112 25.6606 75.8126 24.7537C74.714 23.8468 73.3399 23.352 71.9226 23.353H52.8432C50.6588 23.3555 48.5645 24.2355 47.0198 25.8C45.4752 27.3645 44.6063 29.4857 44.6038 31.6983C44.6021 33.0726 44.9363 34.426 45.5764 35.6377C46.2165 36.8495 47.1428 37.882 48.2725 38.6431L51.7565 40.9956C53.4304 42.1337 55.4606 42.6051 57.4568 42.3191L60.8222 50.8403L51.2855 59.6949C46.1679 54.988 39.6304 52.1703 32.7334 51.6988C25.8364 51.2273 18.9844 53.1297 13.2888 57.0975C7.59317 61.0652 3.38809 66.8655 1.35559 73.5576C-0.676909 80.2497 -0.417605 87.441 2.09144 93.9651C4.60049 100.489 9.21211 105.963 15.1783 109.5C21.1445 113.036 28.1152 114.427 34.9599 113.447C41.8046 112.468 48.1218 109.174 52.8867 104.102C57.6517 99.0295 60.5849 92.4753 61.2106 85.5025H64.4809C65.1404 88.0848 66.6806 90.3476 68.8288 91.8904C70.9771 93.4333 73.595 94.1566 76.2192 93.9326C78.8434 93.7085 81.3047 92.5514 83.1676 90.666C85.0305 88.7807 86.1749 86.2887 86.3982 83.6309C94.9405 80.6708 101.992 74.4298 106.034 66.2531L113.374 51.3887C114.362 54.0085 115.469 56.5938 116.677 59.1066C111.221 63.8561 107.587 70.3975 106.412 77.5864C105.237 84.7753 106.594 92.1539 110.247 98.4314C113.901 104.709 119.617 109.485 126.396 111.925C133.175 114.365 140.585 114.313 147.33 111.779C154.075 109.244 159.726 104.388 163.293 98.0598C166.86 91.7318 168.117 84.3349 166.843 77.1632C165.57 69.9914 161.847 63.5015 156.327 58.8289C150.806 54.1562 143.84 51.5983 136.645 51.6027V51.6027ZM128.278 29.0029H132.775L131.846 31.8279H128.278V29.0029ZM128.278 37.4778H129.986L129.613 38.6124C129.504 38.9393 129.33 39.2395 129.1 39.4936C128.87 39.7478 128.59 39.9502 128.277 40.0878L128.278 37.4778ZM94.8082 12.053C94.2565 12.053 93.7173 11.8874 93.2586 11.5769C92.8 11.2665 92.4425 10.8253 92.2314 10.3091C92.0203 9.79294 91.965 9.22493 92.0726 8.67694C92.1803 8.12895 92.4459 7.62558 92.836 7.2305C93.226 6.83542 93.723 6.56637 94.2641 6.45737C94.8051 6.34836 95.3659 6.40431 95.8755 6.61812C96.3852 6.83194 96.8208 7.19402 97.1273 7.65859C97.4337 8.12315 97.5973 8.66934 97.5973 9.22806C97.5965 9.97704 97.3024 10.6951 96.7795 11.2247C96.2566 11.7543 95.5477 12.0522 94.8082 12.053V12.053ZM57.3752 36.5283C56.9686 36.7059 56.5246 36.7774 56.0836 36.7364C55.6427 36.6954 55.2189 36.5431 54.8511 36.2935L51.3671 33.941C50.8919 33.6201 50.5312 33.1528 50.3383 32.6083C50.1455 32.0638 50.1308 31.4709 50.2963 30.9172C50.4618 30.3635 50.7988 29.8785 51.2574 29.5338C51.7161 29.189 52.2721 29.0029 52.8432 29.0029H71.9226C72.0545 29.0029 72.1822 29.049 72.2844 29.1334C72.3865 29.2178 72.4568 29.3353 72.4833 29.4661C72.5098 29.5969 72.4909 29.7329 72.4299 29.8513C72.3689 29.9696 72.2694 30.063 72.1482 30.1156L57.3752 36.5283ZM30.6581 108.102C26.6001 108.107 22.6015 107.115 19.0049 105.212C15.4083 103.308 12.3209 100.55 10.0073 97.1732C7.69367 93.7966 6.22277 89.9021 5.72064 85.8236C5.2185 81.745 5.7001 77.6039 7.12417 73.7552C8.54824 69.9065 10.8723 66.4648 13.8973 63.725C16.9222 60.9853 20.5579 59.0292 24.4927 58.0243C28.4276 57.0194 32.5443 56.9957 36.4901 57.9552C40.436 58.9148 44.0934 60.8289 47.1489 63.5337L32.3351 77.2881C31.3324 76.9672 30.2606 76.9399 29.2432 77.2093C28.2258 77.4787 27.3044 78.0339 26.5851 78.8108C25.8658 79.5877 25.378 80.5548 25.1779 81.6004C24.9778 82.646 25.0736 83.7276 25.4542 84.7205C25.8348 85.7133 26.4847 86.577 27.329 87.2119C28.1733 87.8468 29.1776 88.227 30.2261 88.3088C31.2746 88.3905 32.3245 88.1704 33.2548 87.6739C34.1851 87.1774 34.9579 86.4246 35.484 85.5025H55.6006C54.9073 91.7139 51.9821 97.4499 47.3823 101.618C42.7826 105.785 36.8298 108.093 30.6581 108.102V108.102ZM37.8307 79.8525L50.9226 67.6963C53.5054 71.2639 55.1189 75.4556 55.6017 79.8525H37.8307ZM64.4809 79.8525H61.2106C60.6908 74.0396 58.5568 68.4946 55.0554 63.8589L62.9347 56.5433L68.9738 73.3653C66.7544 74.9098 65.1592 77.213 64.4809 79.8525V79.8525ZM75.2843 88.3274C74.181 88.3274 73.1025 87.9961 72.1851 87.3753C71.2678 86.7544 70.5528 85.872 70.1306 84.8396C69.7084 83.8072 69.5979 82.6712 69.8132 81.5752C70.0284 80.4792 70.5597 79.4725 71.3398 78.6824C72.12 77.8922 73.1139 77.3541 74.196 77.1361C75.2781 76.9181 76.3997 77.03 77.419 77.4576C78.4383 77.8852 79.3095 78.6094 79.9224 79.5385C80.5354 80.4677 80.8625 81.56 80.8625 82.6775C80.8608 84.1754 80.2725 85.6115 79.2267 86.6706C78.181 87.7298 76.7632 88.3257 75.2843 88.3274V88.3274ZM117.121 29.0029H122.7V31.8279H117.121V29.0029ZM117.121 37.4778H122.7V40.3028H117.121V37.4778ZM136.645 108.102C131.627 108.106 126.722 106.585 122.566 103.736C118.41 100.886 115.194 96.8397 113.332 92.1192C111.471 87.3987 111.05 82.2212 112.125 77.256C113.199 72.2907 115.72 67.7662 119.36 64.2671C122.584 70.0431 126.397 75.4611 130.735 80.4323C130.911 80.6316 131.113 80.8045 131.336 80.9458C130.949 82.146 130.966 83.4428 131.387 84.6318C131.807 85.8207 132.606 86.8341 133.658 87.5122C134.71 88.1903 135.955 88.4945 137.196 88.3768C138.437 88.2591 139.605 87.7263 140.514 86.8623C141.424 85.9983 142.023 84.8523 142.218 83.605C142.414 82.3577 142.193 81.08 141.593 79.9735C140.992 78.867 140.044 77.9946 138.899 77.4938C137.755 76.993 136.478 76.8923 135.271 77.2076C135.171 77.0213 135.051 76.847 134.913 76.6878C130.664 71.8218 126.952 66.5008 123.842 60.8192C127.164 58.8231 130.896 57.6305 134.747 57.3342C138.599 57.0379 142.466 57.6459 146.047 59.1109C149.628 60.5758 152.828 62.8583 155.396 65.7804C157.964 68.7026 159.831 72.1856 160.853 75.9584C161.874 79.7312 162.022 83.6918 161.285 87.532C160.548 91.3722 158.946 94.9883 156.604 98.0988C154.261 101.209 151.242 103.73 147.78 105.465C144.318 107.2 140.508 108.103 136.645 108.102V108.102Z" fill="#EEAB3A"/>
<path d="M134.317 96.6067C132.682 96.3298 131.109 95.7564 129.675 94.9142C129.034 94.5389 128.273 94.4367 127.558 94.6299C126.844 94.8231 126.234 95.2961 125.863 95.9446C125.493 96.5932 125.392 97.3642 125.583 98.0882C125.773 98.8122 126.24 99.4297 126.881 99.805C128.894 100.986 131.1 101.79 133.395 102.179C134.124 102.303 134.873 102.128 135.475 101.693C136.077 101.258 136.484 100.599 136.607 99.8601C136.729 99.1211 136.557 98.3632 136.127 97.7531C135.698 97.143 135.047 96.7306 134.317 96.6067V96.6067Z" fill="#EEAB3A"/>
<path d="M147.444 66.2001C147.139 65.9947 146.797 65.8521 146.437 65.7805C146.078 65.7089 145.708 65.7098 145.349 65.783C144.99 65.8562 144.648 66.0003 144.344 66.2071C144.04 66.4139 143.779 66.6793 143.576 66.9883C143.374 67.2972 143.233 67.6436 143.162 68.0076C143.092 68.3716 143.092 68.7462 143.165 69.1099C143.237 69.4736 143.379 69.8194 143.583 70.1274C143.788 70.4354 144.05 70.6997 144.355 70.9051C146.334 72.2353 147.944 74.0552 149.035 76.1924C150.125 78.3297 150.658 80.7134 150.584 83.1179C150.51 85.5223 149.831 87.8678 148.612 89.9322C147.393 91.9965 145.673 93.7114 143.616 94.9143C142.976 95.2894 142.509 95.9069 142.318 96.6308C142.127 97.3547 142.228 98.1257 142.599 98.7742C142.969 99.4228 143.579 99.8957 144.293 100.089C145.008 100.282 145.769 100.18 146.41 99.805C149.288 98.1208 151.694 95.7204 153.4 92.8311C155.106 89.9418 156.056 86.6591 156.16 83.294C156.263 79.9289 155.517 76.5927 153.992 73.6014C152.467 70.61 150.213 68.0625 147.444 66.2001V66.2001Z" fill="#EEAB3A"/>
<path d="M22.8509 70.509C23.3048 70.5088 23.7518 70.396 24.1527 70.1802C25.6184 69.3944 27.2118 68.8821 28.8566 68.6678C29.2229 68.624 29.5771 68.5071 29.8985 68.3237C30.2199 68.1404 30.5022 67.8943 30.7291 67.5997C30.956 67.3051 31.1229 66.9678 31.2202 66.6074C31.3175 66.247 31.3432 65.8706 31.296 65.5001C31.2487 65.1295 31.1293 64.7722 30.9447 64.4487C30.7601 64.1252 30.514 63.842 30.2206 63.6155C29.9273 63.389 29.5924 63.2237 29.2355 63.1291C28.8787 63.0346 28.5068 63.0127 28.1415 63.0647C25.8346 63.365 23.5999 64.0837 21.5445 65.1863C20.9935 65.4813 20.5559 65.9546 20.3016 66.5308C20.0472 67.107 19.9906 67.753 20.141 68.3655C20.2913 68.9781 20.6399 69.522 21.131 69.9105C21.6222 70.299 22.2277 70.5097 22.8509 70.509Z" fill="#EEAB3A"/>
<path d="M31.5947 96.7723C29.2248 96.9333 26.8535 96.4787 24.7056 95.4516C22.5577 94.4245 20.7043 92.859 19.3209 90.9033C17.9376 88.9477 17.0702 86.6666 16.8008 84.2764C16.5315 81.8861 16.8692 79.4658 17.7819 77.2447C17.9236 76.9019 17.997 76.5341 17.9981 76.1624C17.9992 75.7908 17.9279 75.4226 17.7882 75.0789C17.6485 74.7352 17.4433 74.4228 17.1842 74.1596C16.9251 73.8964 16.6173 73.6876 16.2785 73.5451C15.9396 73.4026 15.5762 73.3292 15.2093 73.3292C14.8424 73.3291 14.479 73.4024 14.1401 73.5448C13.8012 73.6873 13.4933 73.896 13.2342 74.1592C12.9751 74.4223 12.7698 74.7347 12.63 75.0783C11.3963 78.0836 10.9138 81.3508 11.2253 84.5903C11.5369 87.8297 12.6328 90.9412 14.4161 93.6488C16.1993 96.3564 18.6146 98.5765 21.4479 100.112C24.2812 101.648 27.4448 102.452 30.6583 102.452C31.0913 102.452 31.5261 102.438 31.9626 102.409C32.3287 102.385 32.6866 102.288 33.0158 102.124C33.345 101.96 33.639 101.732 33.881 101.453C34.1231 101.174 34.3084 100.849 34.4263 100.497C34.5442 100.145 34.5924 99.7734 34.5681 99.4026C34.5439 99.0319 34.4477 98.6696 34.285 98.3366C34.1223 98.0036 33.8964 97.7063 33.6201 97.4618C33.3439 97.2174 33.0227 97.0305 32.675 96.912C32.3274 96.7934 31.96 96.7455 31.594 96.7709L31.5947 96.7723Z" fill="#EEAB3A"/>
<rect x="67.6138" y="103.512" width="15.3403" height="3.88424" rx="1.94212" fill="#EEAB3A"/>
<rect x="73.1924" y="81.6181" width="4.1837" height="24.0123" rx="2.09185" fill="#EEAB3A"/>
</svg>
