<svg width="177" height="114" viewBox="0 0 177 114" fill="none" xmlns="http://www.w3.org/2000/svg">
<path d="M30.2774 113.381C31.6817 113.632 33.0199 112.687 33.269 111.266C33.5188 109.845 32.5834 108.488 31.1805 108.236C16.1035 105.521 5.16028 92.2735 5.16028 76.7363C5.16028 59.0941 19.3307 44.7415 36.7491 44.7415C40.9035 44.7415 44.8727 45.5596 48.5094 47.0426L46.9348 50.235C43.7746 48.9844 40.3413 48.2903 36.7491 48.2903C21.2631 48.2903 8.66445 61.0509 8.66445 76.7363C8.66445 92.4213 21.2631 105.182 36.7491 105.182C51.3647 105.182 63.403 93.8136 64.7102 79.3496H68.2292C67.0812 93.7384 56.5415 105.675 42.3177 108.236C40.9148 108.489 39.9794 109.845 40.2292 111.266C40.4514 112.533 41.5392 113.422 42.7663 113.422C42.9163 113.422 43.0684 113.409 43.2208 113.381C57.6744 110.779 68.855 99.8573 72.3485 85.9845C73.9592 87.4888 75.9617 88.5679 78.1816 89.0449V94.3854H75.9214C74.4962 94.3854 73.3413 95.5551 73.3413 96.9987C73.3413 98.4423 74.4962 99.612 75.9214 99.612H85.6021C87.0274 99.612 88.1823 98.4423 88.1823 96.9987C88.1823 95.5551 87.0274 94.3854 85.6021 94.3854H83.3423V89.0449C88.9584 87.8382 93.1857 82.7785 93.1857 76.7359C93.1857 73.9198 92.2675 71.317 90.7187 69.2183L121.237 34.9817L124.146 42.87C111.468 48.7465 102.638 61.7161 102.638 76.7359C102.638 97.2597 119.124 113.957 139.387 113.957C159.65 113.957 176.136 97.2597 176.136 76.7359C176.136 56.2121 159.65 39.5146 139.387 39.5146C135.773 39.5146 132.28 40.0484 128.979 41.0376L120.146 17.082H134.929C135.948 19.5964 138.389 21.373 141.235 21.373C141.787 21.373 142.236 21.8281 142.236 22.3874C142.236 22.9466 141.787 23.4017 141.235 23.4017H138.094C134.335 23.4017 131.277 26.4993 131.277 30.306C131.277 34.1127 134.336 37.21 138.094 37.21H141.235C149.305 37.21 155.87 30.5603 155.87 22.387C155.87 14.2137 149.305 7.56404 141.235 7.56404C138.389 7.56404 135.948 9.34073 134.929 11.8547H116.428C114.664 11.8547 113.374 13.6478 114.011 15.3823L116.628 22.4797H64.0091L62.3664 18.0245C63.4129 17.3667 64.3036 16.451 64.9318 15.3318C65.3449 14.5949 66.1217 14.1367 66.9591 14.1367H77.9305C80.9668 14.1367 83.0354 11.0171 81.8915 8.17067L81.8912 8.17032C80.1284 3.78869 75.9706 0.957275 71.2989 0.957275H44.8662C41.341 0.957275 38.4733 3.86222 38.4733 7.43268C38.4733 13.9053 43.6725 19.1713 50.0633 19.1713H57.2808L59.4086 24.9421L50.8219 42.3526C46.4852 40.5247 41.7319 39.5135 36.7494 39.5135C16.4857 39.5149 0 56.2125 0 76.7363C0 94.8112 12.7335 110.223 30.2774 113.381ZM139.387 44.7415C156.805 44.7415 170.976 59.0941 170.976 76.7363C170.976 94.3785 156.805 108.731 139.387 108.731C121.969 108.731 107.798 94.3785 107.798 76.7363C107.798 63.9558 115.236 52.9033 125.957 47.7816L127.187 51.1179C117.795 55.725 111.303 65.4768 111.303 76.7363C111.303 92.4213 123.901 105.182 139.387 105.182C152.397 105.182 163.62 96.245 166.678 83.4489C167.014 82.0465 166.163 80.6339 164.778 80.2942C163.393 79.9534 161.999 80.8165 161.663 82.219C159.167 92.6617 150.007 99.9549 139.387 99.9549C126.747 99.9549 116.463 89.5386 116.463 76.7359C116.463 67.7172 121.569 59.8889 129.004 56.0456L134.508 70.972C132.904 72.3665 131.885 74.4324 131.885 76.7363C131.885 80.9259 135.251 84.3347 139.387 84.3347C143.524 84.3347 146.89 80.9262 146.89 76.7363C146.89 72.5463 143.524 69.1378 139.387 69.1378C139.372 69.1378 139.356 69.1389 139.341 69.1389L133.836 54.2089C135.614 53.7591 137.473 53.5166 139.388 53.5166C150.007 53.5166 159.167 60.8101 161.664 71.2529C161.999 72.655 163.393 73.517 164.778 73.1776C166.163 72.8379 167.014 71.4257 166.679 70.0229C163.62 57.2264 152.397 48.2897 139.388 48.2897C136.839 48.2897 134.371 48.6416 132.022 49.289L130.79 45.9454C133.523 45.1617 136.407 44.7415 139.387 44.7415ZM139.387 74.3648C140.678 74.3648 141.729 75.4289 141.729 76.7366C141.729 78.0443 140.678 79.1084 139.387 79.1084C138.096 79.1084 137.045 78.0443 137.045 76.7366C137.045 75.4289 138.096 74.3648 139.387 74.3648ZM53.123 49.3841C61.5449 54.5755 67.3915 63.6436 68.2319 74.1233H64.7102C63.8884 65.0315 58.8272 57.1665 51.5488 52.5758L53.123 49.3841ZM43.7939 74.123C43.4402 73.1484 42.8933 72.2679 42.2028 71.5267L49.2311 57.2759C54.829 60.9722 58.7412 67.073 59.5245 74.123H43.7939ZM36.7491 74.3648C38.0402 74.3648 39.0908 75.4289 39.0908 76.7366C39.0908 78.0443 38.0402 79.1084 36.7491 79.1084C35.4576 79.1084 34.407 78.0443 34.407 76.7366C34.407 75.4289 35.4576 74.3648 36.7491 74.3648ZM36.7491 99.9552C24.1088 99.9552 13.8247 89.539 13.8247 76.7363C13.8247 63.9332 24.1088 53.5169 36.7491 53.5169C39.5133 53.5169 42.1646 54.0152 44.6206 54.9274L37.5878 69.1866C37.3122 69.1553 37.0326 69.1378 36.7491 69.1378C32.6126 69.1378 29.2467 72.5463 29.2467 76.7363C29.2467 80.9262 32.6123 84.3347 36.7491 84.3347C39.9794 84.3347 42.7395 82.2559 43.7939 79.3496H59.5245C58.2375 90.9261 48.5169 99.9552 36.7491 99.9552ZM83.3423 83.605V76.7363C83.3423 75.2927 82.1874 74.123 80.7621 74.123C79.3369 74.123 78.182 75.2927 78.182 76.7363V83.605C75.4484 82.5479 73.4985 79.8719 73.4985 76.7363C73.4985 72.6797 76.7571 69.3797 80.7621 69.3797C84.7672 69.3797 88.0254 72.6801 88.0254 76.7363C88.0254 79.8719 86.0755 82.5479 83.3423 83.605ZM141.235 12.7917C146.459 12.7917 150.71 17.0963 150.71 22.388C150.71 27.6798 146.459 31.9844 141.235 31.9844H138.094C137.181 31.9844 136.438 31.2318 136.438 30.307C136.438 29.3819 137.181 28.6293 138.094 28.6293H141.235C144.632 28.6293 147.396 25.8296 147.396 22.3884C147.396 18.9472 144.632 16.1475 141.235 16.1475C140.321 16.1475 139.578 15.3949 139.578 14.4698C139.578 13.5443 140.321 12.7917 141.235 12.7917ZM118.555 27.7073L119.203 29.4649L86.842 65.7688C85.0434 64.7419 82.97 64.1531 80.7625 64.1531C80.3029 64.1531 79.8498 64.1802 79.4029 64.2301L65.9367 27.7077L118.555 27.7073ZM43.6332 7.43407C43.6332 6.7452 44.1861 6.18526 44.8659 6.18526H71.2985C73.3926 6.18526 75.2984 7.22187 76.4536 8.91145H66.9587C64.2692 8.91145 61.7733 10.3829 60.4447 12.7509C60.0312 13.4882 59.2541 13.9464 58.4168 13.9464H50.0626C46.5178 13.9461 43.6332 11.0247 43.6332 7.43407ZM61.8762 31.6363L74.5007 65.875C73.7266 66.3346 73.0055 66.8751 72.3498 67.4873C69.9011 57.8237 63.7064 49.666 55.4348 44.6979L61.8762 31.6363Z" fill="#EEAB3A"/>
</svg>
