<svg width="166" height="115" viewBox="0 0 166 115" fill="none" xmlns="http://www.w3.org/2000/svg">
<path d="M29.8801 54.4192C32.4521 54.4192 35.0001 54.7502 37.4451 55.4011C39.4089 55.9173 41.3146 56.6401 43.1316 57.554C48.1275 51.3741 53.7838 46.0401 59.9871 41.6571L55.0764 31.0936H46.0129C41.8759 31.0936 38.2268 28.1283 37.3404 24.0635C37.1961 23.4281 37.1228 22.7638 37.1228 22.0892C37.1228 19.6845 38.0481 17.4229 39.7286 15.7209C41.2637 14.1659 43.3014 13.2373 45.4656 13.1059C45.5129 13.103 45.5603 13.1013 45.6079 13.1013L50.4907 13.0948C50.4917 13.0948 50.4926 13.0948 50.4939 13.0948C51.8355 13.0948 52.924 14.1955 52.9256 15.5544C52.9272 16.9145 51.8401 18.0186 50.4972 18.0205L45.6942 18.0271C43.4308 18.3795 42.1952 19.7337 41.9864 22.0896C41.9864 24.1394 43.9833 26.1681 46.0132 26.1681H65.5182C67.6396 26.1681 69.5451 24.1775 69.5451 22.0896C69.5451 19.8408 67.7385 18.011 65.5182 18.011H61.0894C59.7465 18.011 58.6578 16.9083 58.6578 15.5481C58.6578 14.188 59.7465 13.0852 61.0894 13.0852H65.5182C70.4204 13.0852 74.4084 17.1244 74.4084 22.0896C74.3957 24.4861 73.5275 26.6088 71.8026 28.458C70.1244 30.1577 67.8925 31.0939 65.5182 31.0939H60.4523L64.1004 38.9417C73.6805 33.0294 84.8265 28.9473 97.2652 26.8075C104.07 25.5632 111.016 25.1301 117.916 24.9084L114.331 11.3569C113.479 8.13415 110.582 5.88307 107.285 5.88307H98.0151C96.6722 5.88307 95.5834 4.78035 95.5834 3.42017C95.5834 2.06 96.6722 0.957275 98.0151 0.957275H107.284C112.779 0.957275 117.609 4.71007 119.029 10.0828L122.951 24.9084H128.525C129.645 19.3183 134.535 15.0976 140.379 15.0976C141.722 15.0976 142.811 16.2003 142.811 17.5605V37.1359C142.811 38.4961 141.722 39.5988 140.379 39.5988C134.551 39.5988 129.673 35.4014 128.535 29.8346H124.26L128.158 44.4881C128.188 44.5995 128.206 44.7121 128.22 44.8251L130.881 54.8862C132.583 54.5801 134.333 54.4198 136.12 54.4198C152.596 54.4198 166 67.9963 166 84.6839C166 101.372 152.596 114.948 136.12 114.948C119.644 114.948 106.24 101.372 106.24 84.6839C106.24 71.5248 114.576 60.3026 126.179 56.1442L123.947 47.7086C106.601 49.0238 95.6168 57.2259 88.7278 74.0097C92.3737 76.1383 94.8355 80.1243 94.8355 84.6839C94.8355 90.631 90.6517 95.6064 85.1089 96.7505V100.21H90.7827C92.1256 100.21 93.2144 101.312 93.2144 102.673V112.485C93.2144 113.845 92.1256 114.948 90.7827 114.948H74.5718C73.2288 114.948 72.1401 113.845 72.1401 112.485V102.673C72.1401 101.312 73.2288 100.21 74.5718 100.21H80.2456V96.7505C75.4883 95.7686 71.7326 91.9639 70.7635 87.1455H59.6606C58.4192 102.686 45.5373 114.947 29.8801 114.947C13.4042 114.947 0 101.371 0 84.6833C0 67.9957 13.4042 54.4192 29.8801 54.4192ZM111.104 84.6839C111.104 98.6554 122.326 110.022 136.12 110.022C149.915 110.022 161.137 98.6554 161.137 84.6839C161.137 70.7124 149.915 59.3456 136.12 59.3456C134.768 59.3456 133.442 59.4586 132.147 59.6688L133.404 64.4222C134.293 64.3003 135.199 64.232 136.12 64.232C147.254 64.232 156.313 73.4068 156.313 84.6839C156.313 95.961 147.254 105.136 136.12 105.136C124.986 105.136 115.928 95.9613 115.928 84.6839C115.928 76.0602 121.228 68.6715 128.699 65.6694L127.443 60.9196C117.913 64.501 111.104 73.8012 111.104 84.6839ZM136.12 80.6053C133.9 80.6053 132.093 82.4351 132.093 84.6839C132.093 86.9327 133.9 88.7625 136.12 88.7625C138.341 88.7625 140.147 86.9327 140.147 84.6839C140.147 82.4351 138.341 80.6053 136.12 80.6053ZM136.384 75.6865C141.164 75.8286 145.01 79.8084 145.01 84.6839C145.01 89.6491 141.022 93.6882 136.12 93.6882C131.218 93.6882 127.23 89.6491 127.23 84.6839C127.23 81.361 129.018 78.4551 131.669 76.8946L129.969 70.4671C124.571 72.8725 120.792 78.3382 120.792 84.6836C120.792 93.2446 127.668 100.21 136.121 100.21C144.573 100.21 151.45 93.2449 151.45 84.6836C151.45 76.1222 144.573 69.1575 136.121 69.1575C135.633 69.1575 135.152 69.1831 134.676 69.2284L136.384 75.6865ZM77.0037 110.022H88.3514V105.136H77.0037V110.022ZM47.3402 60.1305C47.9018 60.541 48.451 60.9662 48.9763 61.4112C49.8786 62.1638 50.7595 63.0006 51.595 63.8977C52.5164 64.8872 52.4713 66.446 51.4945 67.3793C50.5179 68.3125 48.9789 68.2669 48.0571 67.2775C47.3607 66.5297 46.6296 65.8349 45.8702 65.2014C45.3752 64.7821 44.8606 64.3831 44.3318 64.0031C43.3848 65.2957 42.4559 66.6338 41.552 68.0108C46.0774 71.2703 49.223 76.3669 49.9207 82.2197H54.7753C54.608 80.4661 54.2662 78.7378 53.7446 77.0588C53.3415 75.7613 54.0532 74.3785 55.3342 73.97C56.6158 73.5625 57.9805 74.2829 58.3838 75.5801C59.0543 77.7382 59.4797 79.9627 59.6599 82.2197H70.7645C71.3701 79.212 73.0612 76.5994 75.404 74.8221L62.0906 46.1823C56.7018 50.0812 51.7574 54.7578 47.3402 60.1305ZM38.4297 87.1455C37.3695 90.9173 33.9396 93.6882 29.8801 93.6882C24.9779 93.6882 20.99 89.6491 20.99 84.6839C20.99 79.7187 24.9779 75.6796 29.8801 75.6796C30.3933 75.6796 30.8958 75.7262 31.3854 75.8112C32.4268 73.7831 33.5078 71.8125 34.6201 69.921C33.1265 69.4277 31.5342 69.1578 29.8801 69.1578C21.4277 69.1578 14.551 76.1229 14.551 84.6839C14.551 93.2449 21.4277 100.21 29.8801 100.21C37.5054 100.21 43.8461 94.5408 45.0143 87.1455H38.4297ZM29.8801 80.6053C27.6598 80.6053 25.8533 82.4351 25.8533 84.6839C25.8533 86.9327 27.6598 88.7625 29.8801 88.7625C32.1003 88.7625 33.9069 86.9327 33.9069 84.6839C33.9069 82.4351 32.1003 80.6053 29.8801 80.6053ZM35.7705 77.9477C37.0223 79.0718 37.9583 80.5469 38.4291 82.2197H45.014C44.3652 78.1165 42.1239 74.5463 38.9543 72.18C37.8594 74.0291 36.7953 75.958 35.7705 77.9477ZM137.948 34.2471V20.4496C135.152 21.463 133.147 24.1729 133.147 27.3484C133.147 30.5235 135.152 33.2334 137.948 34.2471ZM122.668 42.8715L121.808 39.6185C117.798 39.6921 113.962 39.9843 110.38 40.4917C109.179 40.6582 108.264 39.959 107.635 38.3936C107.449 37.0466 108.377 35.8017 109.707 35.6132C113.117 35.1298 116.74 34.8339 120.513 34.7239L119.222 29.8434C115.524 29.8802 111.925 30.0464 108.51 30.3383C104.275 30.7176 101.87 30.9711 98.1046 31.6594C85.8812 33.7621 75.4151 37.616 66.1823 43.4199L71.1357 54.076C79.0541 46.3396 88.1251 41.0404 98.7725 37.9381C100.063 37.5608 101.41 38.3171 101.782 39.6241C102.153 40.9311 101.408 42.2958 100.117 42.6718C89.7242 45.6999 80.9475 50.9866 73.3313 58.7992L79.8024 72.7201C80.7248 72.4926 81.6871 72.3691 82.6776 72.3691C83.1581 72.3691 83.6314 72.4006 84.0976 72.4558C91.5583 54.0468 103.903 44.5686 122.668 42.8715ZM80.2459 91.649V84.6839C80.2459 83.3237 81.3347 82.221 82.6776 82.221C84.0205 82.221 85.1092 83.3237 85.1092 84.6839V91.649C87.9393 90.6323 89.9725 87.8949 89.9725 84.6839C89.9725 80.6096 86.7002 77.2952 82.6776 77.2952C78.655 77.2952 75.3826 80.6096 75.3826 84.6839C75.3826 87.8945 77.4155 90.6323 80.2459 91.649ZM29.8801 110.022C42.854 110.022 53.55 99.9657 54.7769 87.1455H49.921C48.7162 97.2654 40.1912 105.136 29.8801 105.136C18.746 105.136 9.68768 95.9613 9.68768 84.6839C9.68768 73.4065 18.746 64.232 29.8801 64.232C32.4852 64.232 34.9736 64.7397 37.2619 65.6536C38.1775 64.2455 39.119 62.8728 40.0807 61.5435C38.8334 60.9777 37.542 60.516 36.2163 60.1673C34.1669 59.6218 32.0352 59.3453 29.8801 59.3453C16.0858 59.3453 4.8633 70.7121 4.8633 84.6836C4.8633 98.6548 16.0858 110.022 29.8801 110.022Z" fill="#EEAB3A"/>
</svg>
