<svg width="166" height="113" viewBox="0 0 166 113" fill="none" xmlns="http://www.w3.org/2000/svg">
<path d="M135.561 51.1993C130.211 51.1928 124.955 52.6237 120.328 55.3461C119.278 53.1023 118.31 50.8031 117.448 48.4745L116.382 45.5942H126.287C127.958 45.5957 129.586 45.0642 130.94 44.0752C132.295 43.0862 133.308 41.6899 133.835 40.0847L135.435 35.2233L135.437 35.2149L138.186 26.8625C138.325 26.4413 138.362 25.9926 138.296 25.5537C138.23 25.1147 138.062 24.6979 137.806 24.3376C137.549 23.9774 137.212 23.684 136.822 23.4816C136.432 23.2792 136 23.1737 135.561 23.1737H114.809C113.708 23.1749 112.653 23.6182 111.875 24.4063C111.097 25.1944 110.659 26.2629 110.658 27.3775V30.1363L108.444 24.1546L117.852 17.008C118.196 16.747 118.475 16.4085 118.667 16.0193C118.859 15.6302 118.959 15.201 118.959 14.766V9.16083C118.959 8.41754 118.668 7.7047 118.149 7.17911C117.63 6.65353 116.926 6.35826 116.192 6.35826H101.881C101.228 4.48835 99.944 2.91236 98.255 1.90882C96.566 0.905286 94.5811 0.538826 92.6511 0.874213C90.7212 1.2096 88.9704 2.22524 87.7082 3.74162C86.4461 5.258 85.7538 7.17749 85.7538 9.16083C85.7538 11.1442 86.4461 13.0637 87.7082 14.58C88.9704 16.0964 90.7212 17.1121 92.6511 17.4474C94.5811 17.7828 96.566 17.4164 98.255 16.4128C99.944 15.4093 101.228 13.8333 101.881 11.9634H113.425V13.3647L103.464 20.9316C102.985 21.2952 102.636 21.8062 102.468 22.3879C102.3 22.9696 102.323 23.5907 102.533 24.1581L109.819 43.8293L100.242 63.2272C97.0178 69.7466 91.4854 74.7951 84.7485 77.3651C83.8654 75.4133 82.4481 73.759 80.6647 72.5984C78.8814 71.4378 76.8068 70.8196 74.687 70.8173C74.329 70.8173 73.9755 70.8362 73.6265 70.8698L66.2193 50.2415C66.2092 50.2135 66.195 50.1876 66.1847 50.1603H66.1885L62.1971 40.0539L73.7562 35.0362C75.0489 34.4761 76.111 33.481 76.7628 32.2192C77.4146 30.9573 77.6162 29.5063 77.3335 28.1113C77.0507 26.7163 76.301 25.4629 75.2112 24.5633C74.1213 23.6636 72.7581 23.1727 71.3521 23.1737H52.424C50.2569 23.1762 48.1792 24.0492 46.6468 25.6013C45.1144 27.1534 44.2524 29.2578 44.2499 31.4528C44.2483 32.8162 44.5798 34.1588 45.2148 35.361C45.8499 36.5631 46.7688 37.5874 47.8896 38.3425L51.3459 40.6764C53.0066 41.8054 55.0206 42.2731 57.001 41.9894L60.3397 50.443L50.8786 59.2273C45.8017 54.5577 39.316 51.7623 32.4737 51.2946C25.6314 50.8269 18.8337 52.7142 13.1833 56.6505C7.53293 60.5867 3.36121 66.341 1.34484 72.98C-0.671538 79.619 -0.414292 86.7533 2.07485 93.2256C4.56399 99.6979 9.13902 105.129 15.0579 108.637C20.9767 112.145 27.8922 113.525 34.6826 112.553C41.473 111.581 47.74 108.314 52.4671 103.282C57.1943 98.2498 60.1042 91.7476 60.725 84.8301H63.9693C64.6236 87.392 66.1516 89.6368 68.2828 91.1674C70.414 92.698 73.0111 93.4156 75.6145 93.1933C78.2179 92.971 80.6597 91.8231 82.5078 89.9527C84.3559 88.0823 85.4912 85.6101 85.7128 82.9734C94.1873 80.0367 101.183 73.8453 105.193 65.7334L112.474 50.987C113.455 53.586 114.553 56.1507 115.751 58.6436C110.339 63.3555 106.734 69.845 105.568 76.9769C104.402 84.1087 105.749 91.4288 109.373 97.6564C112.997 103.884 118.668 108.623 125.393 111.043C132.118 113.464 139.47 113.413 146.161 110.898C152.853 108.383 158.458 103.566 161.997 97.2878C165.536 91.01 166.783 83.6718 165.52 76.557C164.256 69.4421 160.563 63.0037 155.087 58.3681C149.61 53.7325 142.698 51.1949 135.561 51.1993ZM127.26 28.7788H131.722L130.8 31.5814H127.26V28.7788ZM127.26 37.1865H128.955L128.584 38.3121C128.477 38.6363 128.304 38.9342 128.075 39.1863C127.847 39.4384 127.569 39.6392 127.26 39.7757L127.26 37.1865ZM94.056 11.9634C93.5088 11.9634 92.9738 11.799 92.5188 11.4911C92.0637 11.1831 91.7091 10.7454 91.4996 10.2333C91.2902 9.72122 91.2354 9.15772 91.3422 8.61407C91.449 8.07043 91.7125 7.57106 92.0995 7.17911C92.4864 6.78717 92.9795 6.52025 93.5162 6.41211C94.053 6.30397 94.6093 6.35947 95.1149 6.57159C95.6205 6.78371 96.0527 7.14292 96.3567 7.6038C96.6608 8.06468 96.823 8.60653 96.823 9.16083C96.8222 9.90386 96.5304 10.6162 96.0117 11.1416C95.493 11.667 94.7896 11.9626 94.056 11.9634ZM56.92 36.2445C56.5167 36.4207 56.0761 36.4916 55.6387 36.451C55.2012 36.4103 54.7808 36.2592 54.4159 36.0115L50.9596 33.6777C50.4881 33.3593 50.1303 32.8958 49.939 32.3556C49.7477 31.8154 49.733 31.2272 49.8972 30.6779C50.0614 30.1286 50.3958 29.6474 50.8508 29.3054C51.3058 28.9634 51.8574 28.7788 52.424 28.7788H71.3521C71.4828 28.7788 71.6096 28.8246 71.7109 28.9083C71.8122 28.992 71.8819 29.1086 71.9082 29.2383C71.9345 29.3681 71.9158 29.503 71.8553 29.6204C71.7947 29.7378 71.696 29.8304 71.5758 29.8826L56.92 36.2445ZM30.4149 107.251C26.3891 107.255 22.4222 106.271 18.8541 104.383C15.2861 102.494 12.2232 99.7582 9.9279 96.4083C7.63263 93.0584 6.1734 89.1948 5.67525 85.1486C5.1771 81.1024 5.65488 76.9942 7.06765 73.176C8.48042 69.3578 10.7861 65.9434 13.787 63.2254C16.788 60.5074 20.3948 58.5668 24.2984 57.5699C28.202 56.573 32.2861 56.5495 36.2006 57.5014C40.1152 58.4533 43.7436 60.3523 46.7748 63.0356L32.0785 76.6809C31.0838 76.3626 30.0205 76.3354 29.0112 76.6027C28.0019 76.87 27.0878 77.4208 26.3742 78.1915C25.6606 78.9623 25.1766 79.9217 24.9781 80.959C24.7796 81.9963 24.8746 83.0693 25.2522 84.0543C25.6298 85.0393 26.2746 85.8961 27.1122 86.526C27.9498 87.1558 28.9462 87.5331 29.9863 87.6142C31.0264 87.6953 32.068 87.4769 32.9909 86.9843C33.9139 86.4917 34.6805 85.7449 35.2025 84.8301H55.1595C54.4717 90.9922 51.5697 96.6827 47.0064 100.817C42.4432 104.952 36.5376 107.242 30.4149 107.251ZM37.5306 79.225L50.5186 67.1652C53.081 70.7045 54.6816 74.8629 55.1606 79.225H37.5306ZM63.9693 79.225H60.725C60.2094 73.4582 58.0922 67.9572 54.6186 63.3582L62.4354 56.1006L68.4266 72.7892C66.2248 74.3215 64.6423 76.6064 63.9693 79.225ZM74.687 87.6327C73.5925 87.6327 72.5225 87.3039 71.6124 86.688C70.7024 86.0721 69.9931 85.1967 69.5742 84.1725C69.1554 83.1483 69.0458 82.0213 69.2593 80.934C69.4728 79.8467 69.9999 78.848 70.7738 78.0641C71.5478 77.2802 72.5339 76.7464 73.6074 76.5301C74.6808 76.3138 75.7935 76.4248 76.8048 76.8491C77.816 77.2733 78.6803 77.9917 79.2883 78.9135C79.8964 79.8352 80.221 80.9189 80.221 82.0275C80.2193 83.5136 79.6357 84.9382 78.5982 85.989C77.5607 87.0398 76.1542 87.6309 74.687 87.6327ZM116.192 28.7788H121.726V31.5814H116.192V28.7788ZM116.192 37.1865H121.726V39.989H116.192V37.1865ZM135.561 107.251C130.582 107.254 125.717 105.745 121.594 102.918C117.471 100.092 114.28 96.0774 112.433 91.3944C110.586 86.7113 110.169 81.5748 111.235 76.649C112.301 71.7232 114.802 67.2345 118.413 63.7632C121.611 69.4934 125.394 74.8684 129.698 79.8002C129.872 79.9978 130.073 80.1694 130.294 80.3096C129.91 81.5003 129.927 82.7868 130.344 83.9663C130.761 85.1458 131.554 86.1512 132.598 86.8239C133.641 87.4966 134.876 87.7984 136.108 87.6816C137.339 87.5649 138.497 87.0363 139.4 86.1791C140.302 85.322 140.896 84.185 141.09 82.9476C141.284 81.7102 141.065 80.4428 140.469 79.345C139.873 78.2473 138.933 77.3818 137.798 76.8849C136.662 76.3881 135.395 76.2882 134.198 76.6011C134.099 76.4163 133.98 76.2433 133.842 76.0854C129.627 71.258 125.945 65.9792 122.86 60.3427C126.155 58.3624 129.858 57.1793 133.678 56.8853C137.499 56.5913 141.335 57.1945 144.888 58.6479C148.441 60.1012 151.615 62.3655 154.163 65.2645C156.71 68.1635 158.563 71.6189 159.577 75.3617C160.59 79.1046 160.737 83.0338 160.006 86.8436C159.275 90.6533 157.685 94.2407 155.361 97.3265C153.037 100.412 150.042 102.913 146.607 104.635C143.173 106.356 139.393 107.251 135.561 107.251Z" fill="#EEAB3A"/>
<path d="M133.252 95.8463C131.629 95.5715 130.069 95.0027 128.646 94.1672C128.011 93.7949 127.255 93.6934 126.546 93.8851C125.837 94.0768 125.232 94.546 124.865 95.1894C124.497 95.8328 124.397 96.5978 124.586 97.316C124.776 98.0342 125.239 98.6468 125.874 99.0191C127.871 100.191 130.06 100.989 132.336 101.374C133.06 101.497 133.802 101.324 134.4 100.893C134.998 100.461 135.402 99.8069 135.523 99.0738C135.644 98.3407 135.473 97.5889 135.047 96.9836C134.621 96.3783 133.975 95.9692 133.252 95.8463Z" fill="#EEAB3A"/>
<path d="M146.274 65.6809C145.971 65.4771 145.632 65.3356 145.275 65.2646C144.919 65.1936 144.552 65.1944 144.196 65.267C143.839 65.3397 143.501 65.4826 143.199 65.6878C142.897 65.893 142.639 66.1563 142.437 66.4628C142.236 66.7693 142.096 67.1129 142.026 67.474C141.956 67.8352 141.957 68.2068 142.029 68.5676C142.1 68.9284 142.242 69.2714 142.444 69.577C142.647 69.8826 142.907 70.1447 143.209 70.3485C145.173 71.6682 146.771 73.4737 147.852 75.5939C148.934 77.7142 149.463 80.0791 149.389 82.4644C149.316 84.8498 148.643 87.1767 147.433 89.2247C146.223 91.2727 144.517 92.9739 142.477 94.1672C141.841 94.5394 141.378 95.152 141.189 95.8701C141 96.5883 141.1 97.3532 141.467 97.9966C141.835 98.64 142.439 99.1092 143.148 99.301C143.857 99.4927 144.613 99.3914 145.248 99.0192C148.103 97.3484 150.49 94.967 152.183 92.1006C153.876 89.2342 154.818 85.9776 154.921 82.6392C155.024 79.3008 154.283 75.991 152.77 73.0234C151.257 70.0558 149.021 67.5285 146.274 65.6809Z" fill="#EEAB3A"/>
<path d="M22.6695 69.9556C23.1199 69.9554 23.5633 69.8434 23.961 69.6294C25.4151 68.8499 26.9958 68.3416 28.6276 68.129C28.991 68.0856 29.3424 67.9696 29.6612 67.7877C29.9801 67.6058 30.2602 67.3616 30.4853 67.0694C30.7103 66.7771 30.8759 66.4425 30.9725 66.0849C31.069 65.7274 31.0945 65.354 31.0476 64.9864C31.0007 64.6188 30.8823 64.2643 30.6991 63.9433C30.516 63.6224 30.2719 63.3415 29.9808 63.1168C29.6898 62.8921 29.3576 62.7281 29.0036 62.6343C28.6495 62.5405 28.2806 62.5188 27.9182 62.5704C25.6296 62.8682 23.4126 63.5812 21.3735 64.6751C20.8269 64.9677 20.3928 65.4373 20.1404 66.009C19.8881 66.5806 19.832 67.2214 19.9811 67.8291C20.1303 68.4368 20.4761 68.9764 20.9634 69.3618C21.4506 69.7473 22.0513 69.9563 22.6695 69.9556Z" fill="#EEAB3A"/>
<path d="M31.344 96.0106C28.9929 96.1703 26.6404 95.7193 24.5096 94.7003C22.3787 93.6814 20.54 92.1283 19.1676 90.1881C17.7952 88.248 16.9347 85.985 16.6675 83.6138C16.4003 81.2425 16.7353 78.8413 17.6408 76.6379C17.7813 76.2977 17.8542 75.9329 17.8553 75.5642C17.8563 75.1955 17.7856 74.8302 17.647 74.4892C17.5085 74.1483 17.3048 73.8384 17.0478 73.5773C16.7908 73.3162 16.4855 73.109 16.1493 72.9676C15.8131 72.8262 15.4526 72.7534 15.0886 72.7534C14.7246 72.7533 14.3641 72.8261 14.0279 72.9674C13.6916 73.1087 13.3862 73.3158 13.1292 73.5768C12.8721 73.8379 12.6684 74.1477 12.5298 74.4887C11.3058 77.4701 10.8271 80.7114 11.1362 83.9251C11.4453 87.1389 12.5326 90.2257 14.3016 92.9118C16.0707 95.598 18.4669 97.8004 21.2777 99.3239C24.0885 100.847 27.227 101.645 30.415 101.645C30.8446 101.645 31.2759 101.631 31.7089 101.602C32.0721 101.579 32.4272 101.483 32.7538 101.32C33.0804 101.157 33.3721 100.931 33.6122 100.654C33.8523 100.377 34.0361 100.055 34.1531 99.7059C34.27 99.3568 34.3179 98.9878 34.2938 98.62C34.2698 98.2522 34.1743 97.8928 34.013 97.5624C33.8516 97.232 33.6274 96.9371 33.3534 96.6946C33.0793 96.4521 32.7607 96.2667 32.4158 96.1491C32.0708 96.0315 31.7064 95.9839 31.3433 96.0092L31.344 96.0106Z" fill="#EEAB3A"/>
<rect x="67.0776" y="102.696" width="15.2186" height="3.85343" rx="1.92671" fill="#EEAB3A"/>
<rect x="72.6118" y="80.9765" width="4.15051" height="23.8218" rx="2.07526" fill="#EEAB3A"/>
</svg>
