<svg width="166" height="108" viewBox="0 0 166 108" fill="none" xmlns="http://www.w3.org/2000/svg">
<path d="M28.535 106.912C29.8585 107.148 31.1197 106.257 31.3545 104.918C31.5899 103.579 30.7083 102.3 29.3861 102.062C15.1768 99.5039 4.86332 87.0186 4.86332 72.3754C4.86332 55.7485 18.2183 42.2218 34.6343 42.2218C38.5496 42.2218 42.2905 42.9929 45.7178 44.3905L44.2338 47.3992C41.2555 46.2206 38.0198 45.5665 34.6343 45.5665C20.0395 45.5665 8.16584 57.5927 8.16584 72.3754C8.16584 87.1578 20.0395 99.184 34.6343 99.184C48.4088 99.184 59.7543 88.47 60.9864 74.8383H64.3028C63.2209 88.3991 53.2877 99.6487 39.8825 102.062C38.5603 102.3 37.6787 103.579 37.9141 104.918C38.1236 106.112 39.1488 106.95 40.3052 106.95C40.4466 106.95 40.5899 106.938 40.7335 106.912C54.3554 104.459 64.8926 94.1659 68.185 81.0915C69.703 82.5091 71.5903 83.5261 73.6825 83.9757V89.0089H71.5524C70.2092 89.0089 69.1207 90.1113 69.1207 91.4718C69.1207 92.8323 70.2092 93.9347 71.5524 93.9347H80.676C82.0192 93.9347 83.1076 92.8323 83.1076 91.4718C83.1076 90.1113 82.0192 89.0089 80.676 89.0089H78.5462V83.9757C83.8391 82.8385 87.8231 78.07 87.8231 72.3751C87.8231 69.721 86.9578 67.268 85.4981 65.2901L114.26 33.0237L117.002 40.4581C105.054 45.9963 96.7314 58.2196 96.7314 72.3751C96.7314 91.7178 112.268 107.454 131.366 107.454C150.463 107.454 166 91.7178 166 72.3751C166 53.0324 150.463 37.2957 131.366 37.2957C127.96 37.2957 124.668 37.7988 121.556 38.7311L113.232 16.1541H127.164C128.125 18.5237 130.425 20.1982 133.107 20.1982C133.627 20.1982 134.051 20.6271 134.051 21.1541C134.051 21.6812 133.627 22.1101 133.107 22.1101H130.147C126.605 22.1101 123.723 25.0294 123.723 28.6171C123.723 32.2047 126.605 35.1237 130.147 35.1237H133.107C140.713 35.1237 146.9 28.8568 146.9 21.1538C146.9 13.4508 140.713 7.18384 133.107 7.18384C130.425 7.18384 128.125 8.85829 127.164 11.2276H109.728C108.066 11.2276 106.85 12.9175 107.45 14.5522L109.917 21.2411H60.3256L58.7774 17.0424C59.7637 16.4224 60.6031 15.5594 61.1951 14.5046C61.5845 13.8101 62.3166 13.3782 63.1058 13.3782H73.4459C76.3074 13.3782 78.257 10.4382 77.1789 7.75556L77.1786 7.75523C75.5173 3.62575 71.5988 0.957275 67.1958 0.957275H42.2843C38.962 0.957275 36.2593 3.69505 36.2593 7.06004C36.2593 13.1602 41.1592 18.1231 47.1823 18.1231H53.9845L55.9898 23.5619L47.8972 39.9704C43.8101 38.2477 39.3303 37.2947 34.6346 37.2947C15.537 37.296 0 53.0327 0 72.3754C0 89.4102 12.0007 103.935 28.535 106.912ZM131.366 42.2218C147.782 42.2218 161.137 55.7485 161.137 72.3754C161.137 89.0023 147.782 102.529 131.366 102.529C114.95 102.529 101.595 89.0023 101.595 72.3754C101.595 60.3305 108.604 49.914 118.708 45.087L119.868 48.2313C111.016 52.5733 104.898 61.7639 104.898 72.3754C104.898 87.1578 116.771 99.184 131.366 99.184C143.627 99.184 154.204 90.7615 157.087 78.7018C157.403 77.38 156.601 76.0488 155.296 75.7286C153.99 75.4074 152.676 76.2208 152.36 77.5426C150.007 87.3844 141.374 94.2579 131.366 94.2579C119.453 94.2579 109.761 84.441 109.761 72.3751C109.761 63.8754 114.573 56.4975 121.58 52.8754L126.767 66.9429C125.256 68.2571 124.296 70.2041 124.296 72.3754C124.296 76.3239 127.467 79.5366 131.366 79.5366C135.265 79.5366 138.437 76.3243 138.437 72.3754C138.437 68.4265 135.265 65.2143 131.366 65.2143C131.351 65.2143 131.337 65.2152 131.322 65.2152L126.134 51.1445C127.81 50.7205 129.562 50.492 131.366 50.492C141.375 50.492 150.008 57.3658 152.36 67.2076C152.676 68.529 153.99 69.3414 155.296 69.0216C156.601 68.7014 157.403 67.3705 157.087 66.0484C154.204 53.9883 143.627 45.5658 131.366 45.5658C128.964 45.5658 126.639 45.8975 124.425 46.5076L123.263 43.3564C125.839 42.6179 128.558 42.2218 131.366 42.2218ZM131.366 70.1404C132.583 70.1404 133.573 71.1433 133.573 72.3757C133.573 73.6082 132.583 74.6111 131.366 74.6111C130.149 74.6111 129.159 73.6082 129.159 72.3757C129.159 71.1433 130.149 70.1404 131.366 70.1404ZM50.0659 46.5973C58.0032 51.4899 63.5133 60.0362 64.3054 69.9128H60.9864C60.2118 61.3442 55.4418 53.9318 48.5823 49.6053L50.0659 46.5973ZM41.2737 69.9125C40.9404 68.994 40.4249 68.1642 39.7742 67.4657L46.398 54.0349C51.6737 57.5185 55.3608 63.2682 56.099 69.9125H41.2737ZM34.6343 70.1404C35.8511 70.1404 36.8413 71.1433 36.8413 72.3757C36.8413 73.6082 35.8511 74.6111 34.6343 74.6111C33.4172 74.6111 32.427 73.6082 32.427 72.3757C32.427 71.1433 33.4172 70.1404 34.6343 70.1404ZM34.6343 94.2582C22.7214 94.2582 13.0292 84.4414 13.0292 72.3754C13.0292 60.3091 22.7214 50.4923 34.6343 50.4923C37.2394 50.4923 39.7382 50.9619 42.0528 51.8216L35.4247 65.2602C35.165 65.2307 34.9015 65.2143 34.6343 65.2143C30.7359 65.2143 27.5637 68.4265 27.5637 72.3754C27.5637 76.3243 30.7355 79.5366 34.6343 79.5366C37.6787 79.5366 40.28 77.5774 41.2737 74.8383H56.099C54.8861 85.7487 45.7249 94.2582 34.6343 94.2582ZM78.5462 78.8489V72.3754C78.5462 71.0149 77.4578 69.9125 76.1145 69.9125C74.7713 69.9125 73.6829 71.0149 73.6829 72.3754V78.8489C71.1066 77.8526 69.2689 75.3306 69.2689 72.3754C69.2689 68.5523 72.3399 65.4422 76.1145 65.4422C79.8891 65.4422 82.9598 68.5527 82.9598 72.3754C82.9598 75.3306 81.1221 77.8526 78.5462 78.8489ZM133.107 12.1106C138.031 12.1106 142.037 16.1675 142.037 21.1548C142.037 26.142 138.031 30.1989 133.107 30.1989H130.147C129.286 30.1989 128.586 29.4896 128.586 28.618C128.586 27.7462 129.286 27.0369 130.147 27.0369H133.107C136.309 27.0369 138.914 24.3983 138.914 21.1551C138.914 17.9119 136.309 15.2733 133.107 15.2733C132.246 15.2733 131.546 14.564 131.546 13.6922C131.546 12.82 132.246 12.1106 133.107 12.1106ZM111.732 26.1679L112.343 27.8243L81.8445 62.0391C80.1495 61.0713 78.1954 60.5163 76.1148 60.5163C75.6817 60.5163 75.2547 60.542 74.8335 60.5889L62.1422 26.1683L111.732 26.1679ZM41.1223 7.06135C41.1223 6.41213 41.6433 5.88441 42.284 5.88441H67.1955C69.1691 5.88441 70.9652 6.86136 72.054 8.45371H63.1055C60.5707 8.45371 58.2185 9.8405 56.9663 12.0722C56.5766 12.7671 55.8442 13.1989 55.055 13.1989H47.1817C43.8409 13.1986 41.1223 10.4454 41.1223 7.06135ZM58.3154 29.8708L70.2134 62.1392C69.4839 62.5724 68.8043 63.0817 68.1863 63.6587C65.8785 54.5512 60.0403 46.8629 52.2447 42.1808L58.3154 29.8708Z" fill="#EEAB3A"/>
</svg>
