<svg width="165" height="114" viewBox="0 0 165 114" fill="none" xmlns="http://www.w3.org/2000/svg">
<path d="M30.0631 53.9545C32.6128 53.9545 35.1387 54.2827 37.5624 54.9279C39.5091 55.4396 41.3983 56.1561 43.1994 57.0621C48.1519 50.9359 53.7591 45.6483 59.9084 41.3034L55.0405 30.8317H46.0557C41.9546 30.8317 38.3373 27.8921 37.4585 23.8627C37.3155 23.2328 37.2429 22.5742 37.2429 21.9056C37.2429 19.5217 38.1602 17.2798 39.826 15.5925C41.3478 14.0512 43.3678 13.1305 45.5132 13.0003C45.5601 12.9974 45.607 12.9958 45.6543 12.9958L50.4946 12.9893C50.4956 12.9893 50.4965 12.9893 50.4978 12.9893C51.8278 12.9893 52.9067 14.0804 52.9083 15.4275C52.9099 16.7759 51.8323 17.8703 50.501 17.8722L45.7398 17.8788C43.4961 18.2281 42.2712 19.5705 42.0642 21.9059C42.0642 23.9379 44.0437 25.949 46.056 25.949H65.3915C67.4945 25.949 69.3834 23.9756 69.3834 21.9059C69.3834 19.6767 67.5925 17.8628 65.3915 17.8628H61.0012C59.67 17.8628 58.5907 16.7697 58.5907 15.4213C58.5907 14.073 59.67 12.9798 61.0012 12.9798H65.3915C70.2511 12.9798 74.2044 16.9839 74.2044 21.9059C74.1918 24.2816 73.3311 26.3859 71.6213 28.219C69.9577 29.9039 67.7452 30.832 65.3915 30.832H60.3696L63.9861 38.6116C73.4828 32.7507 84.532 28.704 96.8625 26.5828C103.608 25.3494 110.494 24.92 117.334 24.7003L113.78 11.2666C112.936 8.07178 110.063 5.84026 106.795 5.84026H97.606C96.2747 5.84026 95.1954 4.74712 95.1954 3.39877C95.1954 2.05041 96.2747 0.957275 97.606 0.957275H106.794C112.242 0.957275 117.029 4.67745 118.437 10.0035L122.325 24.7003H127.851C128.961 19.1587 133.808 14.9747 139.602 14.9747C140.933 14.9747 142.012 16.0678 142.012 17.4162V36.8215C142.012 38.1698 140.933 39.263 139.602 39.263C133.824 39.263 128.988 35.102 127.86 29.5836H123.622L127.487 44.1098C127.516 44.2202 127.535 44.3318 127.548 44.4438L130.186 54.4175C131.873 54.1141 133.608 53.9552 135.38 53.9552C151.712 53.9552 165 67.4137 165 83.9562C165 100.499 151.712 113.957 135.38 113.957C119.047 113.957 105.759 100.499 105.759 83.9562C105.759 70.9115 114.022 59.7868 125.525 55.6646L123.313 47.3023C106.117 48.6061 95.2285 56.7369 88.3994 73.3748C92.0136 75.4849 94.454 79.4362 94.454 83.9562C94.454 89.8516 90.3066 94.7838 84.8119 95.9179V99.3471H90.4364C91.7677 99.3471 92.847 100.44 92.847 101.789V111.515C92.847 112.864 91.7677 113.957 90.4364 113.957H74.3664C73.0351 113.957 71.9559 112.864 71.9559 111.515V101.789C71.9559 100.44 73.0351 99.3471 74.3664 99.3471H79.9909V95.9179C75.275 94.9446 71.5519 91.173 70.5912 86.3964H59.5848C58.3541 101.802 45.5842 113.957 30.0631 113.957C13.7304 113.957 0.442722 100.498 0.442722 83.9556C0.442722 67.413 13.7304 53.9545 30.0631 53.9545V53.9545ZM110.581 83.9562C110.581 97.8063 121.706 109.074 135.38 109.074C149.054 109.074 160.179 97.8063 160.179 83.9562C160.179 70.1061 149.054 58.8382 135.38 58.8382C134.039 58.8382 132.725 58.9502 131.441 59.1585L132.688 63.8706C133.569 63.7498 134.467 63.6821 135.38 63.6821C146.417 63.6821 155.397 72.7771 155.397 83.9562C155.397 95.1353 146.417 104.23 135.38 104.23C124.343 104.23 115.363 95.1357 115.363 83.9562C115.363 75.4074 120.617 68.083 128.023 65.1069L126.778 60.3985C117.331 63.9487 110.581 73.1681 110.581 83.9562V83.9562ZM135.38 79.9131C133.179 79.9131 131.388 81.727 131.388 83.9562C131.388 86.1855 133.179 87.9993 135.38 87.9993C137.581 87.9993 139.372 86.1855 139.372 83.9562C139.372 81.727 137.581 79.9131 135.38 79.9131ZM135.641 75.037C140.38 75.1779 144.193 79.1231 144.193 83.9562C144.193 88.8783 140.239 92.8823 135.38 92.8823C130.521 92.8823 126.567 88.8783 126.567 83.9562C126.567 80.6622 128.339 77.7815 130.967 76.2346L129.282 69.863C123.931 72.2475 120.184 77.6657 120.184 83.9559C120.184 92.4425 127.001 99.3471 135.38 99.3471C143.76 99.3471 150.576 92.4429 150.576 83.9559C150.576 75.469 143.759 68.5648 135.38 68.5648C134.897 68.5648 134.42 68.5901 133.948 68.6351L135.641 75.037ZM76.7772 109.074H88.0263V104.23H76.7772V109.074ZM47.3715 59.6162C47.9282 60.0231 48.4726 60.4447 48.9933 60.8858C49.8878 61.6319 50.761 62.4614 51.5893 63.3507C52.5027 64.3315 52.458 65.8768 51.4896 66.802C50.5216 67.7272 48.9959 67.6819 48.0821 66.7011C47.3918 65.9598 46.667 65.271 45.9143 64.6431C45.4235 64.2274 44.9135 63.8318 44.3892 63.4552C43.4504 64.7365 42.5296 66.063 41.6335 67.428C46.1197 70.6592 49.2379 75.7115 49.9296 81.5134H54.7419C54.5761 79.7751 54.2373 78.0618 53.7202 76.3974C53.3207 75.1112 54.0262 73.7404 55.296 73.3354C56.5665 72.9314 57.9193 73.6457 58.3191 74.9315C58.9838 77.0709 59.4054 79.2761 59.5841 81.5134H70.5921C71.1925 78.5319 72.869 75.942 75.1914 74.1802L61.9937 45.7892C56.6517 49.6543 51.7503 54.2902 47.3715 59.6162V59.6162ZM38.5384 86.3964C37.4875 90.1355 34.0874 92.8823 30.0631 92.8823C25.2035 92.8823 21.2503 88.8783 21.2503 83.9562C21.2503 79.0342 25.2035 75.0301 30.0631 75.0301C30.5719 75.0301 31.07 75.0764 31.5554 75.1607C32.5877 73.1502 33.6593 71.1967 34.762 69.3216C33.2813 68.8327 31.7029 68.5651 30.0631 68.5651C21.6842 68.5651 14.8672 75.4696 14.8672 83.9562C14.8672 92.4429 21.6842 99.3474 30.0631 99.3474C37.6221 99.3474 43.9078 93.7274 45.0658 86.3964H38.5384ZM30.0631 79.9131C27.8621 79.9131 26.0713 81.727 26.0713 83.9562C26.0713 86.1855 27.8621 87.9993 30.0631 87.9993C32.264 87.9993 34.0549 86.1855 34.0549 83.9562C34.0549 81.727 32.264 79.9131 30.0631 79.9131ZM35.9023 77.2786C37.1432 78.3929 38.0711 79.8552 38.5378 81.5134H45.0655C44.4224 77.4459 42.2005 73.9067 39.0585 71.561C37.9731 73.394 36.9183 75.3062 35.9023 77.2786V77.2786ZM137.191 33.9578V20.2802C134.42 21.2848 132.433 23.9711 132.433 27.119C132.433 30.2666 134.42 32.9528 137.191 33.9578V33.9578ZM122.045 42.5072L121.192 39.2825C117.217 39.3554 113.414 39.6451 109.864 40.1481C108.673 40.3131 107.766 39.6201 107.143 38.0683C106.958 36.7329 107.878 35.4988 109.196 35.312C112.577 34.8328 116.168 34.5395 119.908 34.4304L118.629 29.5924C114.963 29.6288 111.395 29.7936 108.01 30.083C103.812 30.4589 101.428 30.7103 97.6947 31.3926C85.5775 33.477 75.2023 37.2974 66.0498 43.0508L70.9602 53.6144C78.8097 45.9452 87.8019 40.692 98.3567 37.6167C99.6356 37.2427 100.971 37.9924 101.34 39.288C101.708 40.5836 100.969 41.9366 99.6896 42.3093C89.3871 45.311 80.6867 50.5518 73.1367 58.2965L79.5515 72.0965C80.4659 71.8709 81.4198 71.7485 82.4017 71.7485C82.878 71.7485 83.3473 71.7797 83.8095 71.8344C91.2052 53.5854 103.442 44.1896 122.045 42.5072V42.5072ZM79.9912 90.8608V83.9562C79.9912 82.6079 81.0705 81.5147 82.4017 81.5147C83.733 81.5147 84.8122 82.6079 84.8122 83.9562V90.8608C87.6178 89.8529 89.6333 87.1393 89.6333 83.9562C89.6333 79.9174 86.3894 76.6318 82.4017 76.6318C78.4141 76.6318 75.1702 79.9174 75.1702 83.9562C75.1702 87.139 77.1854 89.8529 79.9912 90.8608ZM30.0631 109.074C42.9243 109.074 53.5273 99.1052 54.7435 86.3964H49.9299C48.7356 96.4284 40.2846 104.23 30.0631 104.23C19.0258 104.23 10.0462 95.1357 10.0462 83.9562C10.0462 72.7768 19.0258 63.6821 30.0631 63.6821C32.6456 63.6821 35.1123 64.1854 37.3808 65.0913C38.2884 63.6954 39.2218 62.3347 40.175 61.017C38.9386 60.4561 37.6585 59.9984 36.3442 59.6527C34.3127 59.1119 32.1994 58.8379 30.0631 58.8379C16.3887 58.8379 5.26375 70.1058 5.26375 83.9559C5.26375 97.8057 16.3887 109.074 30.0631 109.074V109.074Z" fill="#EEAB3A"/>
</svg>
