<svg width="40" height="40" viewBox="0 0 40 40" fill="none" xmlns="http://www.w3.org/2000/svg">
<rect x="0.5" y="0.5" width="39" height="39" stroke="#EEAB3A"/>
<path d="M25.1875 7H15.8125C11.4984 7 8 10.4984 8 14.8125V24.1875C8 28.5016 11.4984 32 15.8125 32H25.1875C29.5016 32 33 28.5016 33 24.1875V14.8125C33 10.4984 29.5016 7 25.1875 7ZM30.6562 24.1875C30.6562 27.2031 28.2031 29.6562 25.1875 29.6562H15.8125C12.7969 29.6562 10.3438 27.2031 10.3438 24.1875V14.8125C10.3438 11.7969 12.7969 9.34375 15.8125 9.34375H25.1875C28.2031 9.34375 30.6562 11.7969 30.6562 14.8125V24.1875Z" fill="#EEAB3A"/>
<path d="M20.5 13.25C17.0484 13.25 14.25 16.0484 14.25 19.5C14.25 22.9516 17.0484 25.75 20.5 25.75C23.9516 25.75 26.75 22.9516 26.75 19.5C26.75 16.0484 23.9516 13.25 20.5 13.25ZM20.5 23.4062C18.3469 23.4062 16.5938 21.6531 16.5938 19.5C16.5938 17.3453 18.3469 15.5938 20.5 15.5938C22.6531 15.5938 24.4062 17.3453 24.4062 19.5C24.4062 21.6531 22.6531 23.4062 20.5 23.4062Z" fill="#EEAB3A"/>
<path d="M27.2186 13.6141C27.6785 13.6141 28.0514 13.2412 28.0514 12.7813C28.0514 12.3213 27.6785 11.9485 27.2186 11.9485C26.7586 11.9485 26.3857 12.3213 26.3857 12.7813C26.3857 13.2412 26.7586 13.6141 27.2186 13.6141Z" fill="#EEAB3A"/>
</svg>
