<svg width="57" height="50" viewBox="0 0 57 50" fill="none" xmlns="http://www.w3.org/2000/svg">
<g clip-path="url(#clip0)">
<path d="M55.308 0.856171H0.855957V49.1438H55.308V0.856171Z" stroke="#1D1D1E" stroke-width="5"/>
<path d="M16.4332 17.035C16.7757 17.2704 17.054 17.5674 17.268 17.926C17.482 18.2791 17.5891 18.6965 17.5891 19.1781C17.5891 19.756 17.466 20.2456 17.2198 20.647C16.979 21.0429 16.6312 21.356 16.1764 21.586C15.6948 21.8322 15.1383 22.0061 14.5069 22.1078C13.8808 22.2095 13.1423 22.2603 12.2915 22.2603H6.37598V21.6342C6.54187 21.6182 6.75053 21.5941 7.00204 21.562C7.25354 21.5299 7.43012 21.4924 7.5318 21.4496C7.72978 21.3693 7.86354 21.265 7.93313 21.1366C8.00803 21.0028 8.0455 20.8315 8.0455 20.6229V12.5963C8.0455 12.4037 8.01604 12.2432 7.95721 12.1147C7.89834 11.9863 7.75652 11.8739 7.5318 11.7776C7.36591 11.708 7.17327 11.6518 6.95389 11.609C6.7345 11.5609 6.54187 11.5234 6.37598 11.4967V10.8706H12.5644C14.1216 10.8706 15.2453 11.0847 15.9356 11.5127C16.6259 11.9408 16.971 12.5722 16.971 13.407C16.971 13.7923 16.8934 14.1321 16.7382 14.4264C16.5831 14.7153 16.361 14.9668 16.072 15.1809C15.8098 15.3788 15.4968 15.5501 15.1329 15.6946C14.7691 15.839 14.3784 15.9595 13.961 16.0558V16.2083C14.3784 16.2511 14.8119 16.3447 15.2614 16.4892C15.7108 16.6283 16.1015 16.8102 16.4332 17.035ZM13.8487 13.6077C13.8487 12.9762 13.6694 12.4839 13.3109 12.1308C12.9577 11.7776 12.4253 11.601 11.7136 11.601C11.6119 11.601 11.4782 11.6064 11.3123 11.6171C11.1518 11.6224 11.0126 11.6278 10.8949 11.6332V15.8551H11.3123C12.1792 15.8551 12.8186 15.6544 13.2306 15.2531C13.6427 14.8464 13.8487 14.2979 13.8487 13.6077ZM14.4105 19.0737C14.4105 18.2818 14.1751 17.6745 13.7042 17.2517C13.2333 16.829 12.5564 16.6176 11.6735 16.6176C11.5718 16.6176 11.4354 16.623 11.2641 16.6337C11.0982 16.639 10.9752 16.6444 10.8949 16.6497V20.8155C10.9431 21.0135 11.0929 21.1821 11.3444 21.3212C11.5959 21.4549 11.9009 21.5218 12.2594 21.5218C12.8962 21.5218 13.4126 21.3078 13.8085 20.8797C14.2099 20.4516 14.4105 19.8496 14.4105 19.0737ZM23.982 22.2603H18.9093V21.6743C19.0484 21.6636 19.1848 21.6503 19.3186 21.6342C19.4524 21.6182 19.5674 21.5914 19.6637 21.5539C19.835 21.4897 19.9554 21.3988 20.0249 21.281C20.0945 21.1579 20.1293 20.9974 20.1293 20.7995V16.128C20.1293 15.9407 20.0865 15.7775 20.0009 15.6384C19.9153 15.4939 19.8082 15.3788 19.6798 15.2932C19.5835 15.229 19.4363 15.1675 19.2383 15.1086C19.0457 15.0498 18.8691 15.0123 18.7086 14.9963V14.4103L22.6416 14.2016L22.762 14.322V20.6951C22.762 20.8824 22.8021 21.0429 22.8824 21.1767C22.9627 21.3051 23.0777 21.4014 23.2275 21.4657C23.3345 21.5138 23.4523 21.5566 23.5807 21.5941C23.7091 21.6315 23.8429 21.6583 23.982 21.6743V22.2603ZM22.8102 11.3121C22.8102 11.7188 22.6523 12.0666 22.3366 12.3555C22.0262 12.6391 21.657 12.7809 21.2289 12.7809C20.7955 12.7809 20.4209 12.6391 20.1052 12.3555C19.7948 12.0666 19.6397 11.7188 19.6397 11.3121C19.6397 10.9054 19.7948 10.5576 20.1052 10.2686C20.4209 9.97966 20.7955 9.83521 21.2289 9.83521C21.6623 9.83521 22.0343 9.97966 22.3446 10.2686C22.655 10.5576 22.8102 10.9054 22.8102 11.3121ZM35.1828 22.2603H31.4024C30.9369 21.4416 30.5115 20.7486 30.1262 20.1814C29.7409 19.6088 29.377 19.0791 29.0346 18.5922L28.553 19.0015V20.7513C28.553 20.9439 28.5797 21.1018 28.6332 21.2249C28.6921 21.3479 28.8018 21.4389 28.9623 21.4977C29.0586 21.5405 29.171 21.578 29.2994 21.6101C29.4279 21.6422 29.5563 21.6636 29.6847 21.6743V22.2603H24.7163V21.6743C24.8501 21.6636 24.9839 21.6503 25.1176 21.6342C25.2514 21.6128 25.3691 21.586 25.4708 21.5539C25.642 21.4951 25.7571 21.4041 25.8159 21.281C25.8802 21.1579 25.9122 20.9974 25.9122 20.7995V11.8499C25.9122 11.6733 25.8721 11.4913 25.7919 11.304C25.7169 11.1114 25.6046 10.9669 25.4547 10.8706C25.3531 10.8064 25.2006 10.7529 24.9972 10.7101C24.7939 10.6673 24.6093 10.6405 24.4434 10.6298V10.0439L28.4326 9.83521L28.553 9.96363V18.247C28.949 17.8938 29.3931 17.4845 29.8854 17.0189C30.383 16.5534 30.7817 16.1681 31.0814 15.8631C31.2579 15.6812 31.3542 15.5447 31.3703 15.4538C31.3917 15.3575 31.4024 15.2986 31.4024 15.2772C31.4024 15.1809 31.3168 15.1006 31.1456 15.0364C30.9797 14.9722 30.7282 14.916 30.391 14.8678V14.2979H34.4684V14.8518C33.9334 15.0016 33.5241 15.1434 33.2405 15.2772C32.9622 15.4056 32.6572 15.5795 32.3255 15.7989C32.1061 15.9434 31.892 16.0959 31.6833 16.2564C31.48 16.4116 31.2445 16.6069 30.977 16.8424C31.5014 17.6022 31.9857 18.3059 32.4298 18.9534C32.8739 19.6008 33.3395 20.2858 33.8264 21.0082C33.9923 21.2596 34.1983 21.4282 34.4444 21.5138C34.6906 21.5994 34.9369 21.6529 35.1828 21.6743V22.2603ZM44.0643 20.3419C43.8769 20.647 43.6495 20.9359 43.3817 21.2088C43.1197 21.4763 42.8201 21.7064 42.4828 21.8991C42.1245 22.1024 41.7605 22.2549 41.3913 22.3566C41.0273 22.4636 40.6074 22.5171 40.131 22.5171C39.3393 22.5171 38.6543 22.4048 38.0762 22.18C37.5036 21.9553 37.0304 21.6529 36.6557 21.273C36.281 20.8931 36.0002 20.4463 35.8129 19.9326C35.631 19.4135 35.5399 18.8517 35.5399 18.247C35.5399 17.7012 35.6389 17.1795 35.8369 16.6818C36.0403 16.1788 36.3266 15.732 36.6958 15.3414C37.0595 14.9615 37.517 14.6538 38.0684 14.4184C38.6249 14.1829 39.2454 14.0652 39.9304 14.0652C40.6797 14.0652 41.2951 14.1561 41.7766 14.3381C42.2581 14.52 42.6567 14.7715 42.9725 15.0926C43.2776 15.3976 43.4995 15.7588 43.6386 16.1762C43.778 16.5882 43.8475 17.0216 43.8475 17.4764V17.9982H38.4215C38.4215 19.0951 38.6328 19.9299 39.0557 20.5025C39.4783 21.075 40.1499 21.3613 41.0701 21.3613C41.5732 21.3613 42.0252 21.2249 42.4266 20.952C42.828 20.6737 43.1704 20.3232 43.454 19.9005L44.0643 20.3419ZM40.9978 17.2918C40.9978 16.9708 40.9821 16.6417 40.9499 16.3046C40.9177 15.9675 40.8615 15.6919 40.7814 15.4778C40.6903 15.2263 40.5646 15.0364 40.404 14.9079C40.2488 14.7795 40.0509 14.7153 39.8102 14.7153C39.3982 14.7153 39.0691 14.924 38.8228 15.3414C38.5766 15.7588 38.443 16.4196 38.4215 17.3239L40.9978 17.2918ZM12.3477 39.6887C11.513 39.6887 10.7317 39.5548 10.004 39.2873C9.27622 39.0144 8.64214 38.6209 8.10166 38.1072C7.57194 37.6045 7.15454 36.9836 6.84954 36.2452C6.54454 35.5014 6.39204 34.6853 6.39204 33.7971C6.39204 32.9142 6.54454 32.0982 6.84954 31.349C7.15988 30.5945 7.59334 29.9417 8.14985 29.3905C8.69563 28.8501 9.35115 28.4327 10.1164 28.1384C10.8815 27.8387 11.7003 27.6889 12.5724 27.6889C13.2039 27.6889 13.7791 27.7665 14.2982 27.9216C14.8172 28.0715 15.256 28.2427 15.6145 28.4353L16.1122 27.9939H16.8105L16.8827 32.1516H16.1764C15.7751 30.8835 15.2934 29.9524 14.7316 29.3584C14.1697 28.7645 13.4848 28.4675 12.6768 28.4675C11.6708 28.4675 10.9056 28.9116 10.3812 29.7999C9.8568 30.6828 9.59461 31.9242 9.59461 33.5242C9.59461 34.4284 9.68289 35.2017 9.8595 35.8438C10.0414 36.4805 10.2769 36.9942 10.5658 37.3849C10.8762 37.7918 11.2427 38.0914 11.6655 38.2839C12.0882 38.4712 12.5564 38.5647 13.0701 38.5647C13.8193 38.5647 14.4855 38.3616 15.0687 37.9548C15.6573 37.5483 16.1924 36.9329 16.674 36.1089L17.3643 36.526C17.1342 36.9969 16.872 37.4199 16.5777 37.7942C16.2834 38.1637 15.9436 38.4818 15.5583 38.7493C15.1356 39.0438 14.6674 39.274 14.1537 39.4397C13.6454 39.6055 13.0433 39.6887 12.3477 39.6887ZM26.2134 32.8901C26.2134 33.2968 26.0877 33.6553 25.8361 33.9657C25.5847 34.2705 25.2529 34.4233 24.8409 34.4233C24.4503 34.4233 24.1185 34.3243 23.8456 34.1262C23.578 33.9282 23.4443 33.6366 23.4443 33.2513C23.4443 33.064 23.4576 32.9195 23.4844 32.8178C23.5111 32.7108 23.5352 32.6118 23.5566 32.5209C23.3105 32.5316 23.0509 32.6172 22.778 32.7777C22.5052 32.9383 22.2643 33.1523 22.0557 33.4198V37.8264C22.0557 38.0137 22.0851 38.1688 22.144 38.2918C22.2028 38.4151 22.3018 38.5113 22.4409 38.5808C22.5586 38.6397 22.7486 38.6908 23.0108 38.7336C23.2784 38.7709 23.471 38.7921 23.5887 38.7976V39.3836H18.219V38.7976C18.3528 38.787 18.4865 38.7736 18.6203 38.7575C18.7594 38.736 18.8771 38.7092 18.9735 38.6774C19.1447 38.6185 19.2624 38.5274 19.3266 38.4045C19.3908 38.2812 19.423 38.1205 19.423 37.9226V33.2513C19.423 33.0586 19.3775 32.8874 19.2865 32.7376C19.1955 32.5824 19.0858 32.4593 18.9574 32.3684C18.8611 32.3041 18.738 32.2506 18.5882 32.2078C18.4437 32.165 18.2832 32.1356 18.1066 32.1196V31.5336L21.9353 31.3249L22.0557 31.4453V32.6092H22.0878C22.457 32.1811 22.8476 31.8466 23.2596 31.6059C23.677 31.3597 24.1105 31.2366 24.5599 31.2366C25.0576 31.2366 25.4562 31.3918 25.7559 31.7022C26.0609 32.0072 26.2134 32.4032 26.2134 32.8901ZM36.1139 39.2151C35.8786 39.3168 35.6002 39.4103 35.2793 39.4959C34.9581 39.5815 34.6184 39.6243 34.2598 39.6243C33.6017 39.6243 33.1174 39.5281 32.807 39.3353C32.4967 39.1373 32.2853 38.8565 32.173 38.4925H32.1248C31.9429 38.6747 31.7663 38.8298 31.595 38.9582C31.4292 39.0866 31.2499 39.1962 31.0573 39.2873C30.8058 39.4048 30.5623 39.4904 30.3268 39.5442C30.0968 39.6031 29.773 39.6325 29.3556 39.6325C28.7349 39.6325 28.2052 39.4503 27.7664 39.0866C27.3276 38.7175 27.1082 38.2305 27.1082 37.6257C27.1082 37.2781 27.1564 36.9836 27.2527 36.7428C27.349 36.4966 27.4855 36.2801 27.662 36.0928C27.8225 35.9216 28.0072 35.7798 28.2159 35.6671C28.4299 35.5548 28.6627 35.4507 28.9142 35.3541C29.3958 35.1777 29.9737 34.9959 30.6479 34.8086C31.3221 34.6158 31.8144 34.4445 32.1248 34.2949V33.5242C32.1248 33.3904 32.1141 33.2138 32.0927 32.9945C32.0713 32.775 32.0258 32.5904 31.9562 32.4406C31.8813 32.2694 31.7636 32.1249 31.6031 32.0072C31.4425 31.8895 31.2312 31.8306 30.969 31.8306C30.7335 31.8306 30.5355 31.8654 30.375 31.9349C30.2198 31.9991 30.0941 32.066 29.9978 32.1356C30.0138 32.2426 30.0593 32.4058 30.1342 32.6252C30.2091 32.8446 30.2466 33.056 30.2466 33.2593C30.2466 33.3503 30.2225 33.4653 30.1743 33.6045C30.1262 33.7382 30.0566 33.8452 29.9657 33.9255C29.8426 34.0325 29.7034 34.1155 29.5483 34.1743C29.3984 34.2332 29.1657 34.2627 28.8499 34.2627C28.4005 34.2627 28.0607 34.1556 27.8306 33.9416C27.6005 33.7222 27.4855 33.4386 27.4855 33.0908C27.4855 32.7911 27.6032 32.5236 27.8386 32.2881C28.0794 32.0473 28.371 31.8493 28.7135 31.6941C29.0506 31.5336 29.4386 31.4105 29.8773 31.3249C30.3161 31.2339 30.7228 31.1885 31.0974 31.1885C31.6165 31.1885 32.0927 31.2206 32.5261 31.2848C32.9595 31.3436 33.3502 31.4694 33.698 31.662C34.0297 31.8493 34.292 32.1222 34.4845 32.4808C34.6824 32.8339 34.7817 33.2968 34.7817 33.8693C34.7817 34.474 34.768 35.1911 34.7413 36.0205C34.7201 36.85 34.7095 37.3955 34.7095 37.6579C34.7095 37.8986 34.7441 38.0887 34.8136 38.2277C34.8886 38.3668 35.0009 38.4712 35.1509 38.5408C35.2417 38.5836 35.3834 38.6103 35.5762 38.6209C35.7742 38.6264 35.9533 38.6291 36.1139 38.6291V39.2151ZM32.1248 35.0332C31.8251 35.1349 31.5282 35.2527 31.2339 35.3863C30.9395 35.5147 30.6987 35.6514 30.5115 35.7955C30.3135 35.9455 30.1583 36.138 30.0459 36.3736C29.9335 36.6038 29.8773 36.8767 29.8773 37.1925C29.8773 37.6096 29.971 37.912 30.1583 38.0993C30.3509 38.2866 30.5864 38.3801 30.8646 38.3801C31.1589 38.3801 31.3997 38.3212 31.587 38.2038C31.7796 38.0805 31.9482 37.9308 32.0927 37.7541L32.1248 35.0332ZM44.4896 28.315C44.4896 28.4487 44.468 28.5959 44.4252 28.7564C44.3824 28.917 44.3129 29.0534 44.2167 29.1658C44.1043 29.2996 43.9786 29.4012 43.8393 29.4708C43.7002 29.5403 43.4917 29.5751 43.2132 29.5751C42.7906 29.5751 42.4588 29.428 42.218 29.1337C41.9773 28.8393 41.7204 28.3497 41.4475 27.6648C41.2334 27.7558 41.0595 27.9912 40.9259 28.3712C40.792 28.7511 40.7252 29.5671 40.7252 30.8192V31.4534H42.9403V32.3202H40.741V37.8503C40.741 38.0592 40.7893 38.2223 40.8855 38.3401C40.9821 38.4524 41.1078 38.5353 41.2629 38.589C41.3913 38.6318 41.5598 38.6747 41.7684 38.7175C41.9773 38.7548 42.1646 38.7815 42.3304 38.7976V39.3836H36.9125V38.7976C37.0516 38.787 37.1855 38.7736 37.3139 38.7575C37.4475 38.7414 37.5653 38.7147 37.667 38.6774C37.8382 38.613 37.9533 38.5219 38.0122 38.4045C38.0762 38.2812 38.1084 38.1205 38.1084 37.9226V32.3202H36.479V31.4534H38.1084C38.1084 30.8808 38.1913 30.327 38.3574 29.7919C38.5232 29.2514 38.78 28.7698 39.128 28.3471C39.4649 27.9297 39.9091 27.5926 40.4602 27.3357C41.0115 27.0789 41.6588 26.9504 42.4026 26.9504C43.0663 26.9504 43.58 27.0762 43.9437 27.3277C44.3078 27.5792 44.4896 27.9083 44.4896 28.315ZM50.1595 39.0144C49.817 39.164 49.4506 39.2979 49.0598 39.4158C48.6691 39.5387 48.193 39.6003 47.631 39.6003C46.7965 39.6003 46.1756 39.3969 45.7691 38.9904C45.3677 38.5836 45.167 38.0031 45.167 37.2486V32.3202H43.7221V31.4534H45.1992V29.0213H47.8078V31.4534H50.055V32.3202H47.8239V36.7188C47.8239 37.3449 47.9095 37.789 48.0807 38.051C48.2571 38.3134 48.5701 38.4445 49.0197 38.4445C49.1643 38.4445 49.3649 38.4339 49.6218 38.4123C49.8786 38.3911 50.0578 38.3668 50.1595 38.3401V39.0144Z" fill="#1D1D1E"/>
</g>
<defs>
<clipPath id="clip0">
<rect width="56.1644" height="50" fill="white"/>
</clipPath>
</defs>
</svg>
