<svg width="180" height="161" viewBox="0 0 180 161" fill="none" xmlns="http://www.w3.org/2000/svg">
<path d="M177.256 2.74402H2.74414V157.5H177.256V2.74402Z" stroke="#EEAB3A" stroke-width="5"/>
<path d="M52.6659 54.5951C53.7634 55.3497 54.6552 56.3015 55.3412 57.4505C56.0272 58.5823 56.3702 59.92 56.3702 61.4634C56.3702 63.3155 55.9757 64.8847 55.1868 66.1709C54.4151 67.4399 53.3004 68.4432 51.8427 69.1806C50.2992 69.9695 48.5157 70.5268 46.4921 70.8527C44.4855 71.1786 42.119 71.3414 39.3922 71.3414H20.4336V69.335C20.9653 69.2835 21.634 69.2064 22.44 69.1034C23.2461 69.0006 23.812 68.8805 24.1379 68.7433C24.7724 68.486 25.2011 68.1517 25.4241 67.7401C25.6641 67.3113 25.7842 66.7625 25.7842 66.0938V40.3696C25.7842 39.7523 25.6898 39.2378 25.5013 38.8262C25.3126 38.4146 24.8581 38.0545 24.1379 37.7458C23.6062 37.5229 22.9888 37.3427 22.2857 37.2056C21.5826 37.0512 20.9653 36.9312 20.4336 36.8454V34.839H40.2668C45.2573 34.839 48.8587 35.525 51.0709 36.8969C53.2833 38.2689 54.3894 40.2924 54.3894 42.9677C54.3894 44.2025 54.1407 45.2915 53.6434 46.2347C53.1461 47.1609 52.4343 47.9668 51.5083 48.6528C50.668 49.2873 49.6647 49.8361 48.4986 50.2991C47.3324 50.7622 46.0805 51.1481 44.7428 51.4567V51.9455C46.0805 52.0827 47.4696 52.3828 48.9101 52.8458C50.3507 53.2917 51.6026 53.8748 52.6659 54.5951ZM44.3827 43.6109C44.3827 41.5872 43.8082 40.0095 42.6592 38.8777C41.5273 37.7458 39.8209 37.1799 37.5401 37.1799C37.2142 37.1799 36.7855 37.197 36.2538 37.2313C35.7394 37.2485 35.2935 37.2656 34.9162 37.2828V50.8137H36.2538C39.0321 50.8137 41.0815 50.1705 42.4019 48.8844C43.7224 47.581 44.3827 45.8232 44.3827 43.6109ZM46.1834 61.129C46.1834 58.5909 45.4288 56.6445 43.9196 55.2896C42.4105 53.9348 40.2412 53.2574 37.4114 53.2574C37.0857 53.2574 36.6483 53.2746 36.0995 53.3089C35.5679 53.326 35.1735 53.3432 34.9162 53.3603V66.7111C35.0706 67.3457 35.5507 67.8859 36.3568 68.3317C37.1628 68.7604 38.1403 68.9749 39.2894 68.9749C41.3301 68.9749 42.9851 68.2889 44.2541 66.917C45.5403 65.545 46.1834 63.6156 46.1834 61.129ZM76.8589 71.3414H60.6012V69.4636C61.0471 69.4293 61.4845 69.3865 61.9132 69.335C62.3419 69.2835 62.7105 69.1978 63.0193 69.0777C63.5681 68.8719 63.954 68.5804 64.1769 68.2031C64.3998 67.8086 64.5113 67.2942 64.5113 66.6597V51.6883C64.5113 51.0881 64.3741 50.565 64.0997 50.1191C63.8253 49.6561 63.4823 49.2873 63.0708 49.0129C62.762 48.8072 62.2904 48.61 61.6559 48.4213C61.0385 48.2326 60.4726 48.1126 59.9581 48.0612V46.1833L72.5629 45.5145L72.9488 45.9003V66.3253C72.9488 66.9255 73.0774 67.4399 73.3346 67.8687C73.5919 68.2802 73.9605 68.589 74.4407 68.7948C74.7837 68.9491 75.1611 69.0863 75.5726 69.2064C75.9842 69.3264 76.4129 69.4122 76.8589 69.4636V71.3414ZM73.1031 36.2538C73.1031 37.5572 72.5973 38.6719 71.5854 39.5979C70.5907 40.5068 69.4074 40.9613 68.0355 40.9613C66.6464 40.9613 65.4459 40.5068 64.4342 39.5979C63.4394 38.6719 62.9421 37.5572 62.9421 36.2538C62.9421 34.9505 63.4394 33.8357 64.4342 32.9097C65.4459 31.9836 66.6464 31.5206 68.0355 31.5206C69.4245 31.5206 70.6165 31.9836 71.6111 32.9097C72.6058 33.8357 73.1031 34.9505 73.1031 36.2538ZM112.756 71.3414H100.64C99.1482 68.7176 97.7849 66.4967 96.5501 64.6789C95.3153 62.8439 94.1492 61.1461 93.0516 59.5856L91.5082 60.8975V66.5054C91.5082 67.1226 91.5939 67.6286 91.7654 68.0231C91.9541 68.4174 92.3056 68.7091 92.8201 68.8976C93.1288 69.0348 93.4889 69.1549 93.9005 69.2578C94.3121 69.3607 94.7236 69.4293 95.1352 69.4636V71.3414H79.212V69.4636C79.6409 69.4293 80.0696 69.3865 80.4983 69.335C80.927 69.2664 81.3043 69.1806 81.6302 69.0777C82.179 68.8891 82.5476 68.5975 82.7363 68.2031C82.9421 67.8086 83.0449 67.2942 83.0449 66.6597V37.9774C83.0449 37.4113 82.9163 36.8283 82.6591 36.2281C82.419 35.6107 82.0589 35.1476 81.5787 34.839C81.2528 34.6332 80.7641 34.4617 80.1124 34.3245C79.4607 34.1873 78.869 34.1015 78.3375 34.0673V32.1894L91.1223 31.5206L91.5082 31.9322V58.4794C92.7772 57.3475 94.2007 56.0356 95.7784 54.5436C97.3733 53.0516 98.6509 51.8168 99.6113 50.8393C100.177 50.2563 100.486 49.8189 100.537 49.5274C100.606 49.2188 100.64 49.0301 100.64 48.9615C100.64 48.6528 100.366 48.3956 99.8171 48.1897C99.2854 47.984 98.4794 47.8039 97.399 47.6496V45.8232H110.466V47.5981C108.752 48.0783 107.44 48.5328 106.531 48.9615C105.639 49.3731 104.662 49.9305 103.599 50.6336C102.895 51.0966 102.209 51.5854 101.541 52.0999C100.889 52.5972 100.134 53.2231 99.2769 53.9777C100.957 56.4129 102.51 58.668 103.933 60.7432C105.356 62.8182 106.848 65.0134 108.409 67.3285C108.941 68.1345 109.601 68.6747 110.389 68.9491C111.179 69.2235 111.968 69.395 112.756 69.4636V71.3414ZM141.22 65.1934C140.62 66.1709 139.891 67.097 139.033 67.9716C138.193 68.829 137.233 69.5665 136.151 70.1839C135.003 70.8356 133.837 71.3243 132.653 71.6501C131.487 71.9932 130.141 72.1646 128.614 72.1646C126.077 72.1646 123.882 71.8045 122.029 71.0842C120.194 70.364 118.677 69.395 117.476 68.1774C116.276 66.9598 115.376 65.5278 114.775 63.8814C114.193 62.218 113.901 60.4173 113.901 58.4794C113.901 56.7302 114.218 55.0581 114.852 53.4632C115.504 51.8512 116.422 50.4192 117.605 49.1673C118.77 47.9497 120.237 46.9636 122.004 46.2091C123.787 45.4545 125.776 45.0772 127.971 45.0772C130.373 45.0772 132.345 45.3687 133.888 45.9518C135.431 46.5348 136.709 47.3409 137.721 48.3698C138.699 49.3473 139.41 50.5049 139.856 51.8426C140.302 53.1631 140.525 54.5522 140.525 56.0098V57.682H123.135C123.135 61.1976 123.813 63.8729 125.168 65.7079C126.523 67.5429 128.675 68.4604 131.624 68.4604C133.236 68.4604 134.685 68.0231 135.971 67.1484C137.258 66.2567 138.355 65.1334 139.264 63.7786L141.22 65.1934ZM131.392 55.4183C131.392 54.3893 131.342 53.3347 131.239 52.2542C131.136 51.1738 130.956 50.2906 130.699 49.6046C130.407 48.7985 130.004 48.1897 129.489 47.7781C128.992 47.3666 128.358 47.1609 127.586 47.1609C126.266 47.1609 125.211 47.8296 124.422 49.1673C123.633 50.5049 123.205 52.6229 123.135 55.5211L131.392 55.4183ZM39.5723 127.197C36.897 127.197 34.3931 126.768 32.0608 125.911C29.7285 125.036 27.6964 123.775 25.9642 122.129C24.2665 120.518 22.9288 118.528 21.9513 116.161C20.9738 113.778 20.4851 111.162 20.4851 108.316C20.4851 105.486 20.9738 102.871 21.9513 100.47C22.9459 98.0516 24.3351 95.9594 26.1186 94.193C27.8678 92.4609 29.9687 91.1232 32.421 90.1801C34.8733 89.2197 37.4973 88.7395 40.2925 88.7395C42.3162 88.7395 44.1598 88.9881 45.8232 89.4854C47.4867 89.9657 48.893 90.5145 50.0421 91.1318L51.6369 89.717H53.8748L54.1064 103.042H51.8427C50.5565 98.9777 49.013 95.9936 47.2123 94.0901C45.4117 92.1865 43.2165 91.2347 40.627 91.2347C37.4029 91.2347 34.9506 92.6582 33.2699 95.5049C31.5892 98.3346 30.7489 102.313 30.7489 107.441C30.7489 110.339 31.0319 112.817 31.5979 114.875C32.1809 116.915 32.9355 118.562 33.8616 119.814C34.8562 121.118 36.0309 122.078 37.3857 122.695C38.7406 123.296 40.2412 123.595 41.8875 123.595C44.2884 123.595 46.4235 122.944 48.2928 121.64C50.1792 120.338 51.8941 118.365 53.4376 115.725L55.6498 117.061C54.9124 118.571 54.0721 119.926 53.1288 121.126C52.1857 122.31 51.0967 123.33 49.8619 124.187C48.5071 125.131 47.0065 125.868 45.3602 126.399C43.7311 126.931 41.8017 127.197 39.5723 127.197ZM84.0101 105.409C84.0101 106.712 83.6071 107.861 82.8011 108.856C81.9951 109.833 80.9318 110.322 79.6113 110.322C78.3595 110.322 77.2961 110.005 76.4215 109.37C75.5641 108.736 75.1354 107.801 75.1354 106.566C75.1354 105.966 75.1782 105.503 75.2639 105.177C75.3497 104.834 75.4269 104.517 75.4955 104.225C74.7065 104.26 73.8748 104.534 73.0002 105.049C72.1256 105.563 71.3538 106.249 70.6851 107.106V121.229C70.6851 121.829 70.7794 122.326 70.968 122.72C71.1567 123.116 71.4739 123.424 71.9198 123.647C72.2971 123.836 72.9059 123.999 73.7462 124.136C74.6037 124.256 75.2211 124.324 75.5983 124.342V126.219H58.3889V124.342C58.8177 124.308 59.2464 124.265 59.6751 124.213C60.1211 124.144 60.4983 124.058 60.807 123.956C61.3558 123.768 61.7331 123.476 61.9389 123.082C62.1446 122.686 62.2476 122.172 62.2476 121.537V106.566C62.2476 105.949 62.1018 105.4 61.8102 104.92C61.5187 104.423 61.1672 104.028 60.7556 103.737C60.4468 103.531 60.0525 103.359 59.5723 103.222C59.1092 103.085 58.5947 102.991 58.0288 102.939V101.061L70.2992 100.393L70.6851 100.778V104.508H70.7879C71.9712 103.136 73.2232 102.065 74.5437 101.293C75.8813 100.504 77.2705 100.109 78.711 100.109C80.3059 100.109 81.5835 100.607 82.5439 101.602C83.5214 102.579 84.0101 103.848 84.0101 105.409ZM115.74 125.679C114.986 126.005 114.094 126.305 113.065 126.579C112.036 126.854 110.947 126.991 109.798 126.991C107.689 126.991 106.137 126.683 105.142 126.065C104.147 125.43 103.47 124.53 103.11 123.364H102.955C102.372 123.948 101.806 124.445 101.258 124.856C100.726 125.268 100.152 125.619 99.5341 125.911C98.7281 126.288 97.9477 126.562 97.1932 126.734C96.4558 126.923 95.4183 127.017 94.0806 127.017C92.0912 127.017 90.3934 126.434 88.9872 125.268C87.5809 124.085 86.8778 122.524 86.8778 120.586C86.8778 119.472 87.0322 118.528 87.3409 117.756C87.6495 116.967 88.0869 116.273 88.6528 115.673C89.1672 115.124 89.7589 114.67 90.4278 114.309C91.1138 113.949 91.8598 113.615 92.6657 113.306C94.2092 112.74 96.0614 112.158 98.2221 111.557C100.383 110.939 101.961 110.39 102.955 109.911V107.441C102.955 107.012 102.921 106.446 102.853 105.743C102.784 105.04 102.638 104.448 102.415 103.968C102.175 103.419 101.798 102.956 101.283 102.579C100.769 102.202 100.091 102.013 99.2511 102.013C98.4965 102.013 97.862 102.125 97.3476 102.348C96.8502 102.553 96.4473 102.768 96.1385 102.991C96.19 103.334 96.3357 103.857 96.5758 104.56C96.8159 105.263 96.936 105.94 96.936 106.592C96.936 106.884 96.8588 107.252 96.7044 107.698C96.5501 108.127 96.3272 108.47 96.0357 108.727C95.6412 109.07 95.1953 109.336 94.698 109.525C94.2178 109.713 93.4718 109.808 92.4599 109.808C91.0194 109.808 89.9305 109.465 89.193 108.779C88.4556 108.075 88.0869 107.166 88.0869 106.052C88.0869 105.091 88.4641 104.234 89.2187 103.479C89.9904 102.708 90.9251 102.073 92.0227 101.576C93.1031 101.061 94.3464 100.667 95.7526 100.393C97.1589 100.101 98.4623 99.9552 99.6627 99.9552C101.326 99.9552 102.853 100.058 104.242 100.264C105.631 100.452 106.883 100.856 107.997 101.473C109.061 102.073 109.901 102.948 110.518 104.097C111.152 105.229 111.471 106.712 111.471 108.547C111.471 110.485 111.427 112.783 111.341 115.441C111.273 118.1 111.239 119.848 111.239 120.689C111.239 121.46 111.35 122.07 111.573 122.515C111.813 122.961 112.173 123.296 112.654 123.518C112.945 123.656 113.399 123.741 114.017 123.775C114.651 123.793 115.225 123.802 115.74 123.802V125.679ZM102.955 112.277C101.995 112.603 101.043 112.981 100.1 113.409C99.1568 113.82 98.3851 114.258 97.7849 114.72C97.1503 115.201 96.653 115.818 96.2928 116.573C95.9327 117.311 95.7526 118.185 95.7526 119.197C95.7526 120.534 96.0528 121.503 96.653 122.104C97.2704 122.704 98.025 123.004 98.9168 123.004C99.8599 123.004 100.632 122.815 101.232 122.438C101.849 122.043 102.389 121.564 102.853 120.997L102.955 112.277ZM142.583 90.746C142.583 91.1747 142.514 91.6463 142.377 92.1609C142.24 92.6753 142.017 93.1126 141.708 93.4728C141.348 93.9015 140.946 94.2273 140.499 94.4503C140.053 94.6732 139.385 94.7847 138.493 94.7847C137.138 94.7847 136.075 94.3131 135.303 93.3698C134.531 92.4266 133.708 90.8574 132.833 88.6623C132.148 88.9539 131.59 89.7085 131.162 90.9261C130.733 92.1436 130.519 94.7589 130.519 98.7719V100.804H137.618V103.582H130.569V121.306C130.569 121.975 130.724 122.498 131.032 122.875C131.342 123.235 131.745 123.501 132.242 123.673C132.653 123.81 133.193 123.948 133.862 124.085C134.531 124.204 135.132 124.29 135.663 124.342V126.219H118.3V124.342C118.745 124.308 119.174 124.265 119.586 124.213C120.014 124.162 120.392 124.076 120.718 123.956C121.266 123.75 121.635 123.458 121.824 123.082C122.029 122.686 122.132 122.172 122.132 121.537V103.582H116.91V100.804H122.132C122.132 98.9691 122.398 97.1942 122.93 95.4792C123.461 93.7472 124.285 92.2037 125.4 90.8488C126.48 89.5112 127.903 88.4308 129.669 87.6076C131.436 86.7845 133.511 86.3729 135.895 86.3729C138.022 86.3729 139.668 86.7759 140.834 87.5819C142 88.3879 142.583 89.4426 142.583 90.746ZM160.754 125.036C159.657 125.516 158.482 125.945 157.23 126.323C155.978 126.717 154.452 126.914 152.651 126.914C149.976 126.914 147.986 126.262 146.684 124.959C145.397 123.656 144.754 121.795 144.754 119.377V103.582H140.123V100.804H144.857V93.0097H153.217V100.804H160.42V103.582H153.269V117.679C153.269 119.686 153.543 121.109 154.092 121.949C154.657 122.79 155.661 123.21 157.102 123.21C157.565 123.21 158.208 123.176 159.031 123.107C159.854 123.039 160.428 122.961 160.754 122.875V125.036Z" fill="#EEAB3A"/>
</svg>
