<svg width="40" height="40" viewBox="0 0 40 40" fill="none" xmlns="http://www.w3.org/2000/svg">
<rect x="0.5" y="0.5" width="39" height="39" stroke="#EEAB3A"/>
<g clip-path="url(#clip0)">
<path d="M33 13.7484C32.0703 14.1562 31.0797 14.4266 30.0469 14.5578C31.1094 13.9234 31.9203 12.9266 32.3016 11.725C31.3109 12.3156 30.2172 12.7328 29.0516 12.9656C28.1109 11.9641 26.7703 11.3438 25.3078 11.3438C22.4703 11.3438 20.1859 13.6469 20.1859 16.4703C20.1859 16.8766 20.2203 17.2672 20.3047 17.6391C16.0437 17.4312 12.2734 15.3891 9.74062 12.2781C9.29844 13.0453 9.03906 13.9234 9.03906 14.8688C9.03906 16.6438 9.95312 18.2172 11.3156 19.1281C10.4922 19.1125 9.68437 18.8734 9 18.4969C9 18.5125 9 18.5328 9 18.5531C9 21.0437 10.7766 23.1125 13.1062 23.5891C12.6891 23.7031 12.2344 23.7578 11.7625 23.7578C11.4344 23.7578 11.1031 23.7391 10.7922 23.6703C11.4562 25.7 13.3406 27.1922 15.5813 27.2406C13.8375 28.6047 11.6234 29.4266 9.22656 29.4266C8.80625 29.4266 8.40312 29.4078 8 29.3563C10.2703 30.8203 12.9609 31.6562 15.8625 31.6562C25.2937 31.6562 30.45 23.8438 30.45 17.0719C30.45 16.8453 30.4422 16.6266 30.4312 16.4094C31.4484 15.6875 32.3031 14.7859 33 13.7484Z" fill="#EEAB3A"/>
</g>
<defs>
<clipPath id="clip0">
<rect width="25" height="25" fill="white" transform="translate(8 9)"/>
</clipPath>
</defs>
</svg>
